<?xml version="1.0" encoding="UTF-8"?>
<svg id="Layer_1" xmlns="http://www.w3.org/2000/svg" version="1.1" xmlns:xlink="http://www.w3.org/1999/xlink" viewBox="0 0 3400 2000">
  <!-- Generator: Adobe Illustrator 29.5.1, SVG Export Plug-In . SVG Version: 2.1.0 Build 141)  -->
  <defs>
    <style>
      .st0 {
        fill: #646a6b;
      }

      .st1 {
        opacity: .12;
      }

      .st1, .st2, .st3 {
        fill: #fff;
      }

      .st4 {
        fill: #909aa0;
      }

      .st5 {
        fill: #47494f;
      }

      .st6 {
        fill: #3a3b3f;
      }

      .st7 {
        fill: #d3e1ea;
      }

      .st8 {
        fill: #e0524b;
      }

      .st2 {
        opacity: .24;
      }

      .st3 {
        opacity: .27;
      }

      .st9 {
        fill: #2b2e30;
      }

      .st10 {
        fill: url(#linear-gradient);
      }
    </style>
    <linearGradient id="linear-gradient" x1="7300.41" y1="1291.58" x2="7306.17" y2="1291.58" gradientTransform="translate(14606.59 2583.16) rotate(180)" gradientUnits="userSpaceOnUse">
      <stop offset="0" stop-color="#fff"/>
      <stop offset="1" stop-color="#000"/>
    </linearGradient>
  </defs>
  <g>
    <path class="st9" d="M-4524.91,1026.67h225.35c2.69,0,4.88,2.19,4.88,4.88v27.65h-235.1v-27.65c0-2.69,2.19-4.88,4.88-4.88Z"/>
    <path class="st9" d="M-4080.56,1023.5h225.35c2.69,0,4.88,2.19,4.88,4.88v27.66h-235.11v-27.66c0-2.69,2.19-4.88,4.88-4.88Z"/>
    <path class="st9" d="M-3636.22,1026.67h225.35c2.69,0,4.88,2.19,4.88,4.88v27.65h-235.1v-27.65c0-2.69,2.19-4.88,4.88-4.88Z"/>
    <rect class="st6" x="-4752.91" y="1403.16" width="1377.98" height="49.68"/>
    <path class="st8" d="M-4702.91,1490.47h-141.65s-5.31-151.41,0-189.93c5.31-38.52,219.15-255.02,249.7-259,30.55-3.99,1219.93,0,1219.93,0v372.42h-1270.12c-22.19,0-42.24,13.23-50.98,33.63l-6.88,42.89Z"/>
    <path class="st5" d="M-3374.93,1041.54s-1189.38-3.99-1219.93,0c-.17.02-.35.06-.54.09v85.66h1220.46v-85.76Z"/>
    <path class="st4" d="M-4595.39,1127.29s-115.04,80.2-123.68,113.76c-8.64,33.56,47.52,47.63,47.52,47.63h1296.62v-161.4h-1220.46Z"/>
    <path class="st5" d="M-4825.44,1267.04l153.21-1.92s111.19-105.72,109.21-105.06c-1.97.66-171.14,3.17-171.14,3.17,0,0-19.47,17.95-43.82,45.53-31.13,35.26-47.47,58.29-47.47,58.29Z"/>
    <path class="st9" d="M-4820.39,1260.37l140.53-1.66s104.04-92.9,102.19-92.32c-1.85.58-162.57,2.64-162.57,2.64,0,0-15.78,15.92-38.56,40.15-29.13,30.98-41.59,51.18-41.59,51.18Z"/>
    <rect class="st5" x="-4294.68" y="1166.54" width="194.53" height="95.03" rx="-1952.81" ry="-1952.81"/>
    <g>
      <path class="st5" d="M-4045.73,1166.08h149.37c5.75,0,10.42,4.67,10.42,10.42v237.96h-170.21v-237.96c0-5.75,4.67-10.42,10.42-10.42Z"/>
      <path class="st7" d="M-4040.43,1171.13h138.77c5.5,0,9.96,4.46,9.96,9.96v233.38h-158.69v-233.38c0-5.5,4.46-9.96,9.96-9.96Z"/>
      <rect class="st9" x="-4031.96" y="1189.23" width="40.09" height="113.8" rx="-1975.89" ry="-1975.89"/>
      <rect class="st9" x="-3953.72" y="1189.23" width="40.09" height="113.8" rx="-1936.77" ry="-1936.77"/>
      <rect class="st5" x="-3972.79" y="1168.7" width="5.76" height="245.77"/>
    </g>
    <polygon class="st4" points="-4107.89 1373.64 -4846.92 1373.64 -4846.92 1336.21 -4063.73 1336.21 -4107.89 1373.64"/>
    <polygon class="st4" points="-3374.93 1373.64 -3871.43 1373.64 -3816.56 1336.21 -3374.93 1336.21 -3374.93 1373.64"/>
    <path class="st2" d="M-4807.53,1311.25c-4.05,12.71-4.01,26.31-3.94,39.65.14,25.98.28,51.96.43,77.93.06,11.15,1.02,24.1,10.2,30.43,4.81,3.32,10.95,4.01,16.8,3.91,6.77-.12,14.46-1.77,17.78-7.67,2.19-3.89,1.87-8.64,1.5-13.09-1.52-17.97-3.05-35.95-4.57-53.92-1.3-15.3-2.39-31.62,5-45.08,4.14-7.54,10.62-13.49,15.74-20.4,5.12-6.91,8.98-15.71,6.67-23.99-2.1-7.51-8.97-12.95-16.38-15.39-23.03-7.58-42.13,5.35-49.22,27.62Z"/>
    <g>
      <g>
        <circle class="st4" cx="-4595.39" cy="1492.15" r="43.71"/>
        <path class="st0" d="M-4561.84,1492.15c0,18.53-15.02,33.56-33.56,33.56s-33.56-15.02-33.56-33.56,15.02-33.55,33.56-33.55,33.56,15.02,33.56,33.55Z"/>
        <circle class="st4" cx="-4595.39" cy="1492.15" r="11.98"/>
      </g>
      <g>
        <path class="st4" d="M-4445.77,1492.15c0,24.14-19.57,43.71-43.71,43.71s-43.71-19.57-43.71-43.71,19.57-43.71,43.71-43.71,43.71,19.57,43.71,43.71Z"/>
        <path class="st0" d="M-4455.93,1492.15c0,18.53-15.02,33.56-33.56,33.56s-33.55-15.02-33.55-33.56,15.02-33.55,33.55-33.55,33.56,15.02,33.56,33.55Z"/>
        <circle class="st4" cx="-4489.48" cy="1492.15" r="11.98"/>
      </g>
      <g>
        <path class="st4" d="M-4339.86,1492.15c0,24.14-19.57,43.71-43.71,43.71s-43.71-19.57-43.71-43.71,19.57-43.71,43.71-43.71,43.71,19.57,43.71,43.71Z"/>
        <path class="st0" d="M-4350.02,1492.15c0,18.53-15.02,33.56-33.56,33.56s-33.55-15.02-33.55-33.56,15.02-33.55,33.55-33.55,33.56,15.02,33.56,33.55Z"/>
        <circle class="st4" cx="-4383.57" cy="1492.15" r="11.98"/>
      </g>
      <polygon class="st9" points="-4306.83 1481.49 -4316.83 1435.97 -4470.58 1435.97 -4509.5 1435.97 -4663.25 1435.97 -4673.25 1481.49 -4678.58 1498.38 -4665.16 1498.38 -4654.17 1481.49 -4509.5 1481.49 -4470.58 1481.49 -4325.92 1481.49 -4314.92 1498.38 -4301.5 1498.38 -4306.83 1481.49"/>
    </g>
    <g>
      <g>
        <circle class="st4" cx="-3670.58" cy="1492.15" r="43.71"/>
        <path class="st0" d="M-3637.03,1492.15c0,18.53-15.02,33.56-33.56,33.56s-33.56-15.02-33.56-33.56,15.02-33.55,33.56-33.55,33.56,15.02,33.56,33.55Z"/>
        <circle class="st4" cx="-3670.58" cy="1492.15" r="11.98"/>
      </g>
      <g>
        <path class="st4" d="M-3520.96,1492.15c0,24.14-19.57,43.71-43.71,43.71s-43.71-19.57-43.71-43.71,19.57-43.71,43.71-43.71,43.71,19.57,43.71,43.71Z"/>
        <path class="st0" d="M-3531.12,1492.15c0,18.53-15.02,33.56-33.56,33.56s-33.55-15.02-33.55-33.56,15.02-33.55,33.55-33.55,33.56,15.02,33.56,33.55Z"/>
        <circle class="st4" cx="-3564.68" cy="1492.15" r="11.98"/>
      </g>
      <g>
        <path class="st4" d="M-3415.05,1492.15c0,24.14-19.57,43.71-43.71,43.71s-43.71-19.57-43.71-43.71,19.57-43.71,43.71-43.71,43.71,19.57,43.71,43.71Z"/>
        <path class="st0" d="M-3425.21,1492.15c0,18.53-15.02,33.56-33.56,33.56s-33.55-15.02-33.55-33.56,15.02-33.55,33.55-33.55,33.56,15.02,33.56,33.55Z"/>
        <circle class="st4" cx="-3458.77" cy="1492.15" r="11.98"/>
      </g>
      <polygon class="st9" points="-3382.03 1481.49 -3392.03 1435.97 -3545.78 1435.97 -3584.69 1435.97 -3738.44 1435.97 -3748.44 1481.49 -3753.78 1498.38 -3740.36 1498.38 -3729.36 1481.49 -3584.69 1481.49 -3545.78 1481.49 -3401.11 1481.49 -3390.11 1498.38 -3376.69 1498.38 -3382.03 1481.49"/>
    </g>
    <g>
      <rect class="st5" x="-4540.16" y="1166.39" width="194.53" height="95.03" rx="-2075.55" ry="-2075.55"/>
      <path class="st9" d="M-4526.07,1170.83h166.35c3.5,0,6.35,2.84,6.35,6.35v71.96c0,3.5-2.84,6.35-6.35,6.35h-166.35c-3.5,0-6.35-2.84-6.35-6.35v-71.96c0-3.5,2.84-6.35,6.35-6.35Z"/>
      <polygon class="st1" points="-4486.36 1170.83 -4532.42 1221.08 -4532.23 1236.07 -4470.41 1170.83 -4486.36 1170.83"/>
      <path class="st1" d="M-4490.35,1255.48l73.12-84.66h26.59s-58.17,84.66-59.5,84.66h-40.22Z"/>
      <path class="st1" d="M-4410.91,1255.48c.67,0,57.54-56.01,57.54-56.01v14.08l-30.29,41.93h-27.26Z"/>
    </g>
    <g>
      <rect class="st5" x="-4294.68" y="1166.75" width="194.53" height="95.03" rx="-1952.81" ry="-1952.81"/>
      <rect class="st9" x="-4286.94" y="1171.19" width="179.05" height="84.66" rx="-1964.42" ry="-1964.42"/>
      <polygon class="st1" points="-4240.89 1171.19 -4286.94 1221.44 -4286.75 1236.44 -4224.93 1171.19 -4240.89 1171.19"/>
      <path class="st1" d="M-4244.87,1255.85l73.12-84.66h26.59s-58.17,84.66-59.5,84.66h-40.22Z"/>
      <path class="st1" d="M-4165.43,1255.85c.67,0,57.54-56.01,57.54-56.01v14.08l-30.29,41.93h-27.26Z"/>
    </g>
    <g>
      <path class="st5" d="M-3842.33,1166.57h180.28c3.93,0,7.13,3.19,7.13,7.13v80.78c0,3.93-3.19,7.13-7.13,7.13h-180.28c-3.93,0-7.13-3.19-7.13-7.13v-80.78c0-3.93,3.19-7.13,7.13-7.13Z"/>
      <rect class="st9" x="-3841.72" y="1171.01" width="179.05" height="84.66" rx="-1741.81" ry="-1741.81"/>
      <polygon class="st1" points="-3795.66 1171.01 -3841.72 1221.26 -3841.53 1236.26 -3779.71 1171.01 -3795.66 1171.01"/>
      <path class="st1" d="M-3799.65,1255.67l73.12-84.66h26.59s-58.17,84.66-59.5,84.66h-40.22Z"/>
      <path class="st1" d="M-3720.21,1255.67c.67,0,57.54-56.01,57.54-56.01v14.08l-30.29,41.93h-27.26Z"/>
    </g>
    <g>
      <path class="st5" d="M-3596.85,1166.94h180.28c3.93,0,7.13,3.19,7.13,7.13v80.78c0,3.93-3.19,7.13-7.13,7.13h-180.28c-3.93,0-7.13-3.19-7.13-7.13v-80.78c0-3.93,3.19-7.13,7.13-7.13Z"/>
      <rect class="st9" x="-3596.24" y="1171.38" width="179.05" height="84.66" rx="-1619.07" ry="-1619.07"/>
      <polygon class="st1" points="-3550.18 1171.38 -3596.24 1221.63 -3596.05 1236.63 -3534.23 1171.38 -3550.18 1171.38"/>
      <path class="st1" d="M-3554.17,1256.03l73.12-84.66h26.59s-58.17,84.66-59.5,84.66h-40.22Z"/>
      <path class="st1" d="M-3474.73,1256.03c.67,0,57.54-56.01,57.54-56.01v14.08l-30.29,41.93h-27.26Z"/>
    </g>
    <path class="st1" d="M-4811.49,1247.68l112.47-79.2s23.37-.33,22.28-.31c-1.09.01-122.33,91.95-122.33,91.95l-21.32.25,8.9-12.69Z"/>
    <path class="st3" d="M-4753.14,1259.58l143.46-92.43s27.66-.56,26.57-.53c-1.08.03-112.64,92.28-112.64,92.28l-57.39.68Z"/>
    <path class="st2" d="M-4221.05,1073.05c13.67-.2,27.4-.52,40.89-2.75,3.16-.52,6.66-1.38,8.37-4.08,2.38-3.75-.3-9.02-4.27-11-3.97-1.98-8.66-1.61-13.08-1.22-124.89,10.88-250.42-4.25-375.76-6.17-12.6-.19-26.16,0-37.65,5.92-9.02,4.64-14.31,14.79-1.56,19.44,12.14,4.42,32.11-.5,44.95-.95,15.53-.54,31.06-.88,46.6-1.07,62.49-.78,124.97.81,187.45,1.66,34.68.47,69.37.73,104.05.22Z"/>
    <path class="st2" d="M-4123.42,1070.37c25.76.48,51.52.96,77.28,1.44,19.19.36,38.66.68,57.24-4.14,1.65-.43,3.38-.95,4.51-2.23,2.28-2.58.76-6.97-2.14-8.84-2.89-1.87-6.56-1.93-10-1.92-31,.03-62.01.05-93.01.08-7.75,0-15.5.01-23.25.02-5.26,0-14.05-1.73-18.98.59-12.26,5.75-.51,14.85,8.35,15.02Z"/>
  </g>
  <g>
    <path class="st9" d="M7628.06,1026.67h235.1v27.65c0,2.69-2.19,4.88-4.88,4.88h-225.35c-2.69,0-4.88-2.19-4.88-4.88v-27.65h0Z" transform="translate(15491.23 2085.88) rotate(-180)"/>
    <path class="st9" d="M7183.72,1023.5h235.11v27.66c0,2.69-2.19,4.88-4.88,4.88h-225.35c-2.69,0-4.88-2.19-4.88-4.88v-27.66h0Z" transform="translate(14602.54 2079.54) rotate(-180)"/>
    <path class="st9" d="M6739.37,1026.67h235.1v27.65c0,2.69-2.19,4.88-4.88,4.88h-225.35c-2.69,0-4.88-2.19-4.88-4.88v-27.65h0Z" transform="translate(13713.85 2085.88) rotate(-180)"/>
    <rect class="st6" x="6708.31" y="1403.16" width="1377.98" height="49.68" transform="translate(14794.59 2856) rotate(-180)"/>
    <path class="st8" d="M8036.29,1490.47h141.65s5.31-151.41,0-189.93c-5.31-38.52-219.15-255.02-249.7-259-30.55-3.99-1219.93,0-1219.93,0v372.42s1270.12,0,1270.12,0c22.19,0,42.24,13.23,50.98,33.63l6.88,42.89Z"/>
    <path class="st5" d="M6708.31,1041.54s1189.38-3.99,1219.93,0c.17.02.35.06.54.09v85.66h-1220.46v-85.76Z"/>
    <path class="st4" d="M7928.77,1127.29s115.04,80.2,123.68,113.76c8.64,33.56-47.52,47.63-47.52,47.63h-1296.62v-161.4h1220.46Z"/>
    <path class="st5" d="M8158.82,1267.04l-153.21-1.92s-111.19-105.72-109.21-105.06c1.97.66,171.14,3.17,171.14,3.17,0,0,19.47,17.95,43.82,45.53,31.13,35.26,47.47,58.29,47.47,58.29Z"/>
    <path class="st9" d="M8153.77,1260.37l-140.53-1.66s-104.04-92.9-102.19-92.32c1.85.58,162.57,2.64,162.57,2.64,0,0,15.78,15.92,38.56,40.15,29.13,30.98,41.59,51.18,41.59,51.18Z"/>
    <rect class="st5" x="7433.53" y="1166.54" width="194.53" height="95.03" rx="7.13" ry="7.13" transform="translate(15061.59 2428.11) rotate(-180)"/>
    <g>
      <path class="st5" d="M7219.32,1166.08h170.21v237.96c0,5.75-4.67,10.42-10.42,10.42h-149.37c-5.75,0-10.42-4.67-10.42-10.42v-237.96h0Z" transform="translate(14608.85 2580.55) rotate(-180)"/>
      <path class="st7" d="M7225.08,1171.13h158.69v233.38c0,5.5-4.46,9.96-9.96,9.96h-138.77c-5.5,0-9.96-4.46-9.96-9.96v-233.38h0Z" transform="translate(14608.85 2585.59) rotate(-180)"/>
      <rect class="st9" x="7325.25" y="1189.23" width="40.09" height="113.8" rx="3.01" ry="3.01" transform="translate(14690.58 2492.27) rotate(-180)"/>
      <rect class="st9" x="7247.01" y="1189.23" width="40.09" height="113.8" rx="3.01" ry="3.01" transform="translate(14534.11 2492.27) rotate(-180)"/>
      <rect class="st10" x="7300.41" y="1168.7" width="5.76" height="245.77" transform="translate(14606.59 2583.16) rotate(-180)"/>
    </g>
    <polygon class="st4" points="7441.27 1373.64 8180.3 1373.64 8180.3 1336.21 7397.1 1336.21 7441.27 1373.64"/>
    <polygon class="st4" points="6708.31 1373.64 7204.81 1373.64 7149.93 1336.21 6708.31 1336.21 6708.31 1373.64"/>
    <path class="st2" d="M8140.91,1311.25c4.05,12.71,4.01,26.31,3.94,39.65-.14,25.98-.28,51.96-.43,77.93-.06,11.15-1.02,24.1-10.2,30.43-4.81,3.32-10.95,4.01-16.8,3.91-6.77-.12-14.46-1.77-17.78-7.67-2.19-3.89-1.87-8.64-1.5-13.09,1.52-17.97,3.05-35.95,4.57-53.92,1.3-15.3,2.39-31.62-5-45.08-4.14-7.54-10.62-13.49-15.74-20.4-5.12-6.91-8.98-15.71-6.67-23.99,2.1-7.51,8.97-12.95,16.38-15.39,23.03-7.58,42.13,5.35,49.22,27.62Z"/>
    <g>
      <g>
        <circle class="st4" cx="7928.77" cy="1492.15" r="43.71"/>
        <path class="st0" d="M7895.21,1492.15c0,18.53,15.02,33.56,33.56,33.56s33.56-15.02,33.56-33.56c0-18.53-15.02-33.55-33.56-33.55s-33.56,15.02-33.56,33.55Z"/>
        <circle class="st4" cx="7928.77" cy="1492.15" r="11.98"/>
      </g>
      <g>
        <path class="st4" d="M7779.15,1492.15c0,24.14,19.57,43.71,43.71,43.71,24.14,0,43.71-19.57,43.71-43.71,0-24.14-19.57-43.71-43.71-43.71-24.14,0-43.71,19.57-43.71,43.71Z"/>
        <path class="st0" d="M7789.31,1492.15c0,18.53,15.02,33.56,33.56,33.56,18.53,0,33.55-15.02,33.55-33.56,0-18.53-15.02-33.55-33.55-33.55-18.53,0-33.56,15.02-33.56,33.55Z"/>
        <circle class="st4" cx="7822.86" cy="1492.15" r="11.98"/>
      </g>
      <g>
        <path class="st4" d="M7673.24,1492.15c0,24.14,19.57,43.71,43.71,43.71s43.71-19.57,43.71-43.71c0-24.14-19.57-43.71-43.71-43.71-24.14,0-43.71,19.57-43.71,43.71Z"/>
        <path class="st0" d="M7683.4,1492.15c0,18.53,15.02,33.56,33.56,33.56,18.53,0,33.55-15.02,33.55-33.56,0-18.53-15.02-33.55-33.55-33.55-18.53,0-33.56,15.02-33.56,33.55Z"/>
        <circle class="st4" cx="7716.95" cy="1492.15" r="11.98"/>
      </g>
      <polygon class="st9" points="7640.21 1481.49 7650.21 1435.97 7803.96 1435.97 7842.88 1435.97 7996.63 1435.97 8006.62 1481.49 8011.96 1498.38 7998.54 1498.38 7987.54 1481.49 7842.88 1481.49 7803.96 1481.49 7659.29 1481.49 7648.3 1498.38 7634.88 1498.38 7640.21 1481.49"/>
    </g>
    <g>
      <g>
        <circle class="st4" cx="7003.96" cy="1492.15" r="43.71"/>
        <path class="st0" d="M6970.41,1492.15c0,18.53,15.02,33.56,33.56,33.56,18.53,0,33.56-15.02,33.56-33.56,0-18.53-15.02-33.55-33.56-33.55-18.53,0-33.56,15.02-33.56,33.55Z"/>
        <circle class="st4" cx="7003.96" cy="1492.15" r="11.98"/>
      </g>
      <g>
        <path class="st4" d="M6854.34,1492.15c0,24.14,19.57,43.71,43.71,43.71s43.71-19.57,43.71-43.71-19.57-43.71-43.71-43.71-43.71,19.57-43.71,43.71Z"/>
        <path class="st0" d="M6864.5,1492.15c0,18.53,15.02,33.56,33.56,33.56,18.53,0,33.55-15.02,33.55-33.56,0-18.53-15.02-33.55-33.55-33.55-18.53,0-33.56,15.02-33.56,33.55Z"/>
        <circle class="st4" cx="6898.05" cy="1492.15" r="11.98"/>
      </g>
      <g>
        <path class="st4" d="M6748.43,1492.15c0,24.14,19.57,43.71,43.71,43.71s43.71-19.57,43.71-43.71-19.57-43.71-43.71-43.71-43.71,19.57-43.71,43.71Z"/>
        <path class="st0" d="M6758.59,1492.15c0,18.53,15.02,33.56,33.56,33.56s33.55-15.02,33.55-33.56c0-18.53-15.02-33.55-33.55-33.55-18.53,0-33.56,15.02-33.56,33.55Z"/>
        <circle class="st4" cx="6792.15" cy="1492.15" r="11.98"/>
      </g>
      <polygon class="st9" points="6715.41 1481.49 6725.4 1435.97 6879.15 1435.97 6918.07 1435.97 7071.82 1435.97 7081.82 1481.49 7087.15 1498.38 7073.73 1498.38 7062.74 1481.49 6918.07 1481.49 6879.15 1481.49 6734.49 1481.49 6723.49 1498.38 6710.07 1498.38 6715.41 1481.49"/>
    </g>
    <g>
      <rect class="st5" x="7679.01" y="1166.39" width="194.53" height="95.03" rx="7.13" ry="7.13" transform="translate(15552.55 2427.81) rotate(180)"/>
      <path class="st9" d="M7693.1,1170.83h166.35c3.5,0,6.35,2.84,6.35,6.35v71.96c0,3.5-2.84,6.35-6.35,6.35h-166.35c-3.5,0-6.35-2.84-6.35-6.35v-71.96c0-3.5,2.84-6.35,6.35-6.35Z" transform="translate(15552.55 2426.31) rotate(-180)"/>
      <polygon class="st1" points="7819.74 1170.83 7865.8 1221.08 7865.61 1236.07 7803.79 1170.83 7819.74 1170.83"/>
      <path class="st1" d="M7823.73,1255.48l-73.12-84.66h-26.59s58.17,84.66,59.5,84.66,40.22,0,40.22,0Z"/>
      <path class="st1" d="M7744.29,1255.48c-.67,0-57.54-56.01-57.54-56.01v14.08s30.29,41.93,30.29,41.93h27.26Z"/>
    </g>
    <g>
      <rect class="st5" x="7433.53" y="1166.75" width="194.53" height="95.03" rx="7.13" ry="7.13" transform="translate(15061.59 2428.54) rotate(180)"/>
      <rect class="st9" x="7441.27" y="1171.19" width="179.05" height="84.66" rx="6.35" ry="6.35" transform="translate(15061.59 2427.04) rotate(180)"/>
      <polygon class="st1" points="7574.26 1171.19 7620.32 1221.44 7620.13 1236.44 7558.31 1171.19 7574.26 1171.19"/>
      <path class="st1" d="M7578.25,1255.85l-73.12-84.66h-26.59s58.17,84.66,59.5,84.66,40.22,0,40.22,0Z"/>
      <path class="st1" d="M7498.81,1255.85c-.67,0-57.54-56.01-57.54-56.01v14.08s30.29,41.93,30.29,41.93h27.26Z"/>
    </g>
    <g>
      <path class="st5" d="M6995.43,1166.57h180.28c3.93,0,7.13,3.19,7.13,7.13v80.78c0,3.93-3.19,7.13-7.13,7.13h-180.28c-3.93,0-7.13-3.19-7.13-7.13v-80.78c0-3.93,3.19-7.13,7.13-7.13Z" transform="translate(14171.14 2428.17) rotate(-180)"/>
      <rect class="st9" x="6996.05" y="1171.01" width="179.05" height="84.66" rx="6.35" ry="6.35" transform="translate(14171.15 2426.68) rotate(-180)"/>
      <polygon class="st1" points="7129.04 1171.01 7175.1 1221.26 7174.91 1236.26 7113.09 1171.01 7129.04 1171.01"/>
      <path class="st1" d="M7133.03,1255.67l-73.12-84.66h-26.59s58.17,84.66,59.5,84.66,40.22,0,40.22,0Z"/>
      <path class="st1" d="M7053.59,1255.67c-.67,0-57.54-56.01-57.54-56.01v14.08s30.29,41.93,30.29,41.93h27.26Z"/>
    </g>
    <g>
      <path class="st5" d="M6749.95,1166.94h180.28c3.93,0,7.13,3.19,7.13,7.13v80.78c0,3.93-3.19,7.13-7.13,7.13h-180.28c-3.93,0-7.13-3.19-7.13-7.13v-80.78c0-3.93,3.19-7.13,7.13-7.13Z" transform="translate(13680.19 2428.91) rotate(180)"/>
      <rect class="st9" x="6750.57" y="1171.38" width="179.05" height="84.66" rx="6.35" ry="6.35" transform="translate(13680.19 2427.41) rotate(180)"/>
      <polygon class="st1" points="6883.56 1171.38 6929.62 1221.63 6929.43 1236.63 6867.61 1171.38 6883.56 1171.38"/>
      <path class="st1" d="M6887.55,1256.03l-73.12-84.66h-26.59s58.17,84.66,59.5,84.66,40.22,0,40.22,0Z"/>
      <path class="st1" d="M6808.11,1256.03c-.67,0-57.54-56.01-57.54-56.01v14.08s30.29,41.93,30.29,41.93h27.26Z"/>
    </g>
    <path class="st1" d="M8144.87,1247.68l-112.47-79.2s-23.37-.33-22.28-.31c1.09.01,122.33,91.95,122.33,91.95l21.32.25-8.9-12.69Z"/>
    <path class="st3" d="M8086.52,1259.58l-143.46-92.43s-27.66-.56-26.57-.53c1.08.03,112.64,92.28,112.64,92.28l57.39.68Z"/>
    <path class="st2" d="M7554.43,1073.05c-13.67-.2-27.4-.52-40.89-2.75-3.16-.52-6.66-1.38-8.37-4.08-2.38-3.75.3-9.02,4.27-11,3.97-1.98,8.66-1.61,13.08-1.22,124.89,10.88,250.42-4.25,375.76-6.17,12.6-.19,26.16,0,37.65,5.92,9.02,4.64,14.31,14.79,1.56,19.44-12.14,4.42-32.11-.5-44.95-.95-15.53-.54-31.06-.88-46.6-1.07-62.49-.78-124.97.81-187.45,1.66-34.68.47-69.37.73-104.05.22Z"/>
    <path class="st2" d="M7456.8,1070.37c-25.76.48-51.52.96-77.28,1.44-19.19.36-38.66.68-57.24-4.14-1.65-.43-3.38-.95-4.51-2.23-2.28-2.58-.76-6.97,2.14-8.84,2.89-1.87,6.56-1.93,10-1.92,31,.03,62.01.05,93.01.08,7.75,0,15.5.01,23.25.02,5.26,0,14.05-1.73,18.98.59,12.26,5.75.51,14.85-8.35,15.02Z"/>
  </g>
  <g>
    <path class="st9" d="M-3261.96,1025.09h225.35c2.69,0,4.88,2.19,4.88,4.88v27.65h-235.1v-27.65c0-2.69,2.19-4.88,4.88-4.88Z"/>
    <path class="st9" d="M-2843.39,1021.92h225.35c2.69,0,4.88,2.19,4.88,4.88v27.65h-235.11v-27.65c0-2.69,2.19-4.88,4.88-4.88Z"/>
    <path class="st9" d="M-2424.81,1025.09h225.35c2.69,0,4.88,2.19,4.88,4.88v27.65h-235.11v-27.65c0-2.69,2.19-4.88,4.88-4.88Z"/>
    <path class="st9" d="M-2006.23,1023.5h225.35c2.69,0,4.88,2.19,4.88,4.88v27.66h-235.1v-27.66c0-2.69,2.19-4.88,4.88-4.88Z"/>
    <rect class="st6" x="-3334.98" y="1403.16" width="1592.92" height="49.68"/>
    <g>
      <g>
        <circle class="st4" cx="-3208.14" cy="1492.15" r="43.71"/>
        <path class="st0" d="M-3174.59,1492.15c0,18.53-15.02,33.56-33.55,33.56s-33.56-15.02-33.56-33.56,15.02-33.55,33.56-33.55,33.55,15.02,33.55,33.55Z"/>
        <circle class="st4" cx="-3208.14" cy="1492.15" r="11.98"/>
      </g>
      <g>
        <path class="st4" d="M-3058.52,1492.15c0,24.14-19.57,43.71-43.71,43.71s-43.71-19.57-43.71-43.71,19.57-43.71,43.71-43.71,43.71,19.57,43.71,43.71Z"/>
        <path class="st0" d="M-3068.68,1492.15c0,18.53-15.02,33.56-33.56,33.56s-33.56-15.02-33.56-33.56,15.02-33.55,33.56-33.55,33.56,15.02,33.56,33.55Z"/>
        <circle class="st4" cx="-3102.23" cy="1492.15" r="11.98"/>
      </g>
      <g>
        <path class="st4" d="M-2952.61,1492.15c0,24.14-19.57,43.71-43.71,43.71s-43.71-19.57-43.71-43.71,19.57-43.71,43.71-43.71,43.71,19.57,43.71,43.71Z"/>
        <path class="st0" d="M-2962.77,1492.15c0,18.53-15.02,33.56-33.56,33.56s-33.55-15.02-33.55-33.56,15.02-33.55,33.55-33.55,33.56,15.02,33.56,33.55Z"/>
        <path class="st4" d="M-2984.34,1492.15c0,6.62-5.36,11.98-11.98,11.98s-11.98-5.36-11.98-11.98,5.36-11.98,11.98-11.98,11.98,5.36,11.98,11.98Z"/>
      </g>
      <polygon class="st9" points="-2919.58 1481.49 -2929.58 1435.97 -3083.33 1435.97 -3122.25 1435.97 -3276 1435.97 -3286 1481.49 -3291.33 1498.38 -3277.91 1498.38 -3266.92 1481.49 -3122.25 1481.49 -3083.33 1481.49 -2938.66 1481.49 -2927.67 1498.38 -2914.25 1498.38 -2919.58 1481.49"/>
    </g>
    <g>
      <g>
        <circle class="st4" cx="-2079.63" cy="1492.15" r="43.71"/>
        <path class="st0" d="M-2046.07,1492.15c0,18.53-15.02,33.56-33.56,33.56s-33.56-15.02-33.56-33.56,15.02-33.55,33.56-33.55,33.56,15.02,33.56,33.55Z"/>
        <circle class="st4" cx="-2079.63" cy="1492.15" r="11.98"/>
      </g>
      <g>
        <path class="st4" d="M-1930.01,1492.15c0,24.14-19.57,43.71-43.71,43.71s-43.72-19.57-43.72-43.71,19.57-43.71,43.72-43.71,43.71,19.57,43.71,43.71Z"/>
        <path class="st0" d="M-1940.16,1492.15c0,18.53-15.02,33.56-33.55,33.56s-33.56-15.02-33.56-33.56,15.02-33.55,33.56-33.55,33.55,15.02,33.55,33.55Z"/>
        <circle class="st4" cx="-1973.72" cy="1492.15" r="11.98"/>
      </g>
      <g>
        <path class="st4" d="M-1824.1,1492.15c0,24.14-19.57,43.71-43.72,43.71s-43.71-19.57-43.71-43.71,19.57-43.71,43.71-43.71,43.72,19.57,43.72,43.71Z"/>
        <path class="st0" d="M-1834.26,1492.15c0,18.53-15.02,33.56-33.56,33.56s-33.56-15.02-33.56-33.56,15.02-33.55,33.56-33.55,33.56,15.02,33.56,33.55Z"/>
        <circle class="st4" cx="-1867.81" cy="1492.15" r="11.98"/>
      </g>
      <polygon class="st9" points="-1791.07 1481.49 -1801.07 1435.97 -1954.82 1435.97 -1993.74 1435.97 -2147.49 1435.97 -2157.48 1481.49 -2162.82 1498.38 -2149.4 1498.38 -2138.4 1481.49 -1993.74 1481.49 -1954.82 1481.49 -1810.15 1481.49 -1799.16 1498.38 -1785.74 1498.38 -1791.07 1481.49"/>
    </g>
    <rect class="st6" x="-3379.21" y="1102.88" width="44.24" height="294.65"/>
    <rect class="st6" x="-1742.06" y="1102.88" width="44.24" height="294.65"/>
    <rect class="st8" x="-3334.98" y="1042.52" width="1592.92" height="371.02"/>
    <rect class="st5" x="-3334.98" y="1042.52" width="1592.92" height="81.21"/>
    <rect class="st4" x="-3334.98" y="1123.72" width="1592.92" height="164.97"/>
    <g>
      <path class="st5" d="M-3068.28,1164.5h149.37c5.75,0,10.42,4.67,10.42,10.42v237.96h-170.21v-237.96c0-5.75,4.67-10.42,10.42-10.42Z"/>
      <path class="st7" d="M-3062.98,1169.54h138.77c5.5,0,9.96,4.46,9.96,9.96v233.38h-158.69v-233.38c0-5.5,4.46-9.96,9.96-9.96Z"/>
      <rect class="st9" x="-3054.5" y="1187.65" width="40.09" height="113.8" rx="-1487.16" ry="-1487.16"/>
      <rect class="st9" x="-2976.27" y="1187.65" width="40.09" height="113.8" rx="-1448.04" ry="-1448.04"/>
      <rect class="st5" x="-2995.34" y="1167.11" width="5.76" height="245.77"/>
    </g>
    <g>
      <path class="st5" d="M-2152.4,1164.5h149.37c5.75,0,10.42,4.67,10.42,10.42v237.96h-170.21v-237.96c0-5.75,4.67-10.42,10.42-10.42Z"/>
      <path class="st7" d="M-2147.1,1169.54h138.77c5.5,0,9.96,4.46,9.96,9.96v233.38h-158.69v-233.38c0-5.5,4.46-9.96,9.96-9.96Z"/>
      <path class="st9" d="M-2135.62,1187.65h34.08c1.66,0,3.01,1.35,3.01,3.01v107.79c0,1.66-1.35,3.01-3.01,3.01h-34.08c-1.66,0-3.01-1.35-3.01-3.01v-107.79c0-1.66,1.35-3.01,3.01-3.01Z"/>
      <rect class="st9" x="-2060.38" y="1187.65" width="40.09" height="113.8" rx="-990.1" ry="-990.1"/>
      <rect class="st5" x="-2079.46" y="1167.11" width="5.76" height="245.77"/>
    </g>
    <g>
      <path class="st5" d="M-3303.55,1166.94h180.28c3.93,0,7.13,3.19,7.13,7.13v80.78c0,3.93-3.19,7.13-7.13,7.13h-180.28c-3.93,0-7.13-3.19-7.13-7.13v-80.78c0-3.93,3.19-7.13,7.13-7.13Z"/>
      <path class="st9" d="M-3296.59,1171.38h166.35c3.5,0,6.35,2.84,6.35,6.35v71.96c0,3.5-2.84,6.35-6.35,6.35h-166.35c-3.5,0-6.35-2.84-6.35-6.35v-71.96c0-3.5,2.84-6.35,6.35-6.35Z"/>
      <polygon class="st1" points="-3256.88 1171.38 -3302.94 1221.63 -3302.75 1236.63 -3240.93 1171.38 -3256.88 1171.38"/>
      <path class="st1" d="M-3260.87,1256.03l73.12-84.66h26.59s-58.17,84.66-59.5,84.66h-40.22Z"/>
      <path class="st1" d="M-3181.43,1256.03c.67,0,57.54-56.01,57.54-56.01v14.08l-30.29,41.93h-27.26Z"/>
    </g>
    <g>
      <path class="st5" d="M-1956.19,1160.48h180.28c3.93,0,7.13,3.19,7.13,7.13v80.78c0,3.93-3.19,7.13-7.13,7.13h-180.28c-3.93,0-7.13-3.19-7.13-7.13v-80.78c0-3.93,3.19-7.13,7.13-7.13Z"/>
      <path class="st9" d="M-1949.22,1164.92h166.35c3.5,0,6.35,2.84,6.35,6.35v71.96c0,3.5-2.84,6.35-6.35,6.35h-166.35c-3.5,0-6.35-2.84-6.35-6.35v-71.96c0-3.5,2.84-6.35,6.35-6.35Z"/>
      <polygon class="st1" points="-1909.52 1164.92 -1955.57 1215.16 -1955.38 1230.16 -1893.56 1164.92 -1909.52 1164.92"/>
      <path class="st1" d="M-1913.5,1249.57l73.12-84.66h26.59s-58.17,84.66-59.5,84.66h-40.22Z"/>
      <path class="st1" d="M-1834.06,1249.57c.66,0,57.54-56.01,57.54-56.01v14.08l-30.28,41.93h-27.25Z"/>
    </g>
    <g>
      <rect class="st5" x="-2870.1" y="1165.4" width="194.53" height="95.03" rx="-1240.52" ry="-1240.52"/>
      <path class="st9" d="M-2856.01,1169.83h166.35c3.5,0,6.35,2.84,6.35,6.35v71.96c0,3.5-2.84,6.35-6.35,6.35h-166.35c-3.5,0-6.35-2.84-6.35-6.35v-71.96c0-3.5,2.84-6.35,6.35-6.35Z"/>
      <polygon class="st1" points="-2816.3 1169.83 -2862.36 1220.08 -2862.17 1235.08 -2800.34 1169.83 -2816.3 1169.83"/>
      <path class="st1" d="M-2820.29,1254.49l73.12-84.66h26.59s-58.17,84.66-59.5,84.66h-40.22Z"/>
      <path class="st1" d="M-2740.85,1254.49c.66,0,57.54-56.01,57.54-56.01v14.08l-30.29,41.93h-27.26Z"/>
    </g>
    <g>
      <rect class="st5" x="-2624.62" y="1165.76" width="194.53" height="95.03" rx="-1117.78" ry="-1117.78"/>
      <path class="st9" d="M-2610.53,1170.2h166.35c3.5,0,6.35,2.84,6.35,6.35v71.96c0,3.5-2.84,6.35-6.35,6.35h-166.35c-3.5,0-6.35-2.84-6.35-6.35v-71.96c0-3.5,2.84-6.35,6.35-6.35Z"/>
      <polygon class="st1" points="-2570.82 1170.2 -2616.88 1220.45 -2616.69 1235.45 -2554.87 1170.2 -2570.82 1170.2"/>
      <path class="st1" d="M-2574.81,1254.86l73.12-84.66h26.59s-58.17,84.66-59.5,84.66h-40.22Z"/>
      <path class="st1" d="M-2495.37,1254.86c.67,0,57.54-56.01,57.54-56.01v14.08l-30.28,41.93h-27.26Z"/>
    </g>
    <g>
      <path class="st5" d="M-2377.38,1165.76h180.28c3.93,0,7.13,3.19,7.13,7.13v80.78c0,3.93-3.19,7.13-7.13,7.13h-180.28c-3.93,0-7.13-3.19-7.13-7.13v-80.78c0-3.93,3.19-7.13,7.13-7.13Z"/>
      <rect class="st9" x="-2376.77" y="1170.2" width="179.05" height="84.66" rx="-1009.34" ry="-1009.34"/>
      <polygon class="st1" points="-2330.71 1170.2 -2376.77 1220.45 -2376.58 1235.45 -2314.76 1170.2 -2330.71 1170.2"/>
      <path class="st1" d="M-2334.7,1254.86l73.12-84.66h26.59s-58.17,84.66-59.5,84.66h-40.22Z"/>
      <path class="st1" d="M-2255.26,1254.86c.66,0,57.54-56.01,57.54-56.01v14.08l-30.29,41.93h-27.26Z"/>
    </g>
    <polygon class="st4" points="-1742.06 1373.64 -1963.31 1373.64 -1920.19 1336.21 -1742.06 1336.21 -1742.06 1373.64"/>
    <polygon class="st4" points="-3157.95 1373.64 -3334.94 1373.64 -3334.94 1336.21 -3114.66 1336.21 -3157.95 1373.64"/>
    <polygon class="st4" points="-2376.36 1336.21 -2410.26 1336.21 -2817.99 1336.21 -2872.87 1373.64 -2410.26 1373.64 -2376.36 1373.64 -2233.27 1373.64 -2189.98 1336.21 -2376.36 1336.21"/>
    <path class="st2" d="M-2786.03,1078.01c17.23.59,34.78,1.16,51.41-3.39,2.28-.62,4.67-1.44,6.11-3.32,2.61-3.42.51-8.75-3.14-11.02-3.65-2.28-8.21-2.35-12.51-2.36-144.97-.19-289.95-.39-434.92-.58-18.02-.02-36.05-.05-54.07-.07-15.09-.02-33.28-2.82-47.78,2.16-8.24,2.83-21.61,10.61-11.95,19.46,9.39,8.6,39.12,1.09,50.59.33,71.61-4.72,143.39-6.41,215.15-6.33,80.36.08,160.83,1.78,241.12,5.13Z"/>
    <path class="st2" d="M-2496.16,1079.19c20.62.34,41.53.65,61.51-4.46,2.72-.69,5.63-1.64,7.22-3.96,2.53-3.69.18-9.11-3.67-11.4-3.85-2.28-8.59-2.29-13.07-2.18-32.84.78-65.6,3.93-98.45,4.04-15.13.05-30.26-.55-45.37-1.14-10.31-.41-96.46-10.1-91.16,9.68,3.28,12.23,41.66,7.07,50.94,7.22,20.83.35,41.66.69,62.48,1.04,23.19.39,46.37.77,69.56,1.15Z"/>
  </g>
  <g>
    <path class="st9" d="M-1580.57,1025.09h225.35c2.69,0,4.88,2.19,4.88,4.88v27.65h-235.1v-27.65c0-2.69,2.19-4.88,4.88-4.88Z"/>
    <path class="st9" d="M-1161.99,1021.92h225.35c2.69,0,4.88,2.19,4.88,4.88v27.65h-235.11v-27.65c0-2.69,2.19-4.88,4.88-4.88Z"/>
    <path class="st9" d="M-743.42,1025.09h225.35c2.69,0,4.88,2.19,4.88,4.88v27.65h-235.11v-27.65c0-2.69,2.19-4.88,4.88-4.88Z"/>
    <path class="st9" d="M-324.84,1023.5H-99.49c2.69,0,4.88,2.19,4.88,4.88v27.66h-235.1v-27.66c0-2.69,2.19-4.88,4.88-4.88Z"/>
    <rect class="st6" x="-1653.58" y="1403.16" width="1592.92" height="49.68"/>
    <g>
      <g>
        <circle class="st4" cx="-1526.75" cy="1492.15" r="43.71"/>
        <path class="st0" d="M-1493.19,1492.15c0,18.53-15.02,33.56-33.55,33.56s-33.56-15.02-33.56-33.56,15.02-33.55,33.56-33.55,33.55,15.02,33.55,33.55Z"/>
        <circle class="st4" cx="-1526.75" cy="1492.15" r="11.98"/>
      </g>
      <g>
        <path class="st4" d="M-1377.12,1492.15c0,24.14-19.57,43.71-43.71,43.71s-43.71-19.57-43.71-43.71,19.57-43.71,43.71-43.71,43.71,19.57,43.71,43.71Z"/>
        <path class="st0" d="M-1387.28,1492.15c0,18.53-15.02,33.56-33.56,33.56s-33.56-15.02-33.56-33.56,15.02-33.55,33.56-33.55,33.56,15.02,33.56,33.55Z"/>
        <circle class="st4" cx="-1420.84" cy="1492.15" r="11.98"/>
      </g>
      <g>
        <path class="st4" d="M-1271.21,1492.15c0,24.14-19.57,43.71-43.71,43.71s-43.71-19.57-43.71-43.71,19.57-43.71,43.71-43.71,43.71,19.57,43.71,43.71Z"/>
        <path class="st0" d="M-1281.37,1492.15c0,18.53-15.02,33.56-33.56,33.56s-33.55-15.02-33.55-33.56,15.02-33.55,33.55-33.55,33.56,15.02,33.56,33.55Z"/>
        <path class="st4" d="M-1302.95,1492.15c0,6.62-5.36,11.98-11.98,11.98s-11.98-5.36-11.98-11.98,5.36-11.98,11.98-11.98,11.98,5.36,11.98,11.98Z"/>
      </g>
      <polygon class="st9" points="-1238.19 1481.49 -1248.19 1435.97 -1401.94 1435.97 -1440.85 1435.97 -1594.6 1435.97 -1604.6 1481.49 -1609.94 1498.38 -1596.52 1498.38 -1585.52 1481.49 -1440.85 1481.49 -1401.94 1481.49 -1257.27 1481.49 -1246.27 1498.38 -1232.85 1498.38 -1238.19 1481.49"/>
    </g>
    <g>
      <g>
        <circle class="st4" cx="-398.23" cy="1492.15" r="43.71"/>
        <path class="st0" d="M-364.68,1492.15c0,18.53-15.02,33.56-33.56,33.56s-33.56-15.02-33.56-33.56,15.02-33.55,33.56-33.55,33.56,15.02,33.56,33.55Z"/>
        <circle class="st4" cx="-398.23" cy="1492.15" r="11.98"/>
      </g>
      <g>
        <path class="st4" d="M-248.61,1492.15c0,24.14-19.57,43.71-43.71,43.71s-43.72-19.57-43.72-43.71,19.57-43.71,43.72-43.71,43.71,19.57,43.71,43.71Z"/>
        <path class="st0" d="M-258.77,1492.15c0,18.53-15.02,33.56-33.55,33.56s-33.56-15.02-33.56-33.56,15.02-33.55,33.56-33.55,33.55,15.02,33.55,33.55Z"/>
        <circle class="st4" cx="-292.32" cy="1492.15" r="11.98"/>
      </g>
      <g>
        <path class="st4" d="M-142.7,1492.15c0,24.14-19.57,43.71-43.72,43.71s-43.71-19.57-43.71-43.71,19.57-43.71,43.71-43.71,43.72,19.57,43.72,43.71Z"/>
        <path class="st0" d="M-152.86,1492.15c0,18.53-15.02,33.56-33.56,33.56s-33.56-15.02-33.56-33.56,15.02-33.55,33.56-33.55,33.56,15.02,33.56,33.55Z"/>
        <circle class="st4" cx="-186.42" cy="1492.15" r="11.98"/>
      </g>
      <polygon class="st9" points="-109.68 1481.49 -119.67 1435.97 -273.43 1435.97 -312.34 1435.97 -466.09 1435.97 -476.09 1481.49 -481.42 1498.38 -468 1498.38 -457.01 1481.49 -312.34 1481.49 -273.43 1481.49 -128.76 1481.49 -117.76 1498.38 -104.34 1498.38 -109.68 1481.49"/>
    </g>
    <rect class="st6" x="-1697.82" y="1102.88" width="44.24" height="294.65"/>
    <rect class="st6" x="-60.66" y="1102.88" width="44.24" height="294.65"/>
    <rect class="st8" x="-1653.58" y="1042.52" width="1592.92" height="371.02"/>
    <rect class="st5" x="-1653.58" y="1042.52" width="1592.92" height="81.21"/>
    <rect class="st4" x="-1653.58" y="1123.72" width="1592.92" height="164.97"/>
    <g>
      <path class="st5" d="M-1386.88,1164.5h149.37c5.75,0,10.42,4.67,10.42,10.42v237.96h-170.21v-237.96c0-5.75,4.67-10.42,10.42-10.42Z"/>
      <path class="st7" d="M-1381.58,1169.54h138.77c5.5,0,9.96,4.46,9.96,9.96v233.38h-158.69v-233.38c0-5.5,4.46-9.96,9.96-9.96Z"/>
      <rect class="st9" x="-1373.11" y="1187.65" width="40.09" height="113.8" rx="-646.47" ry="-646.47"/>
      <rect class="st9" x="-1294.87" y="1187.65" width="40.09" height="113.8" rx="-607.35" ry="-607.35"/>
      <rect class="st5" x="-1313.95" y="1167.11" width="5.76" height="245.77"/>
    </g>
    <g>
      <path class="st5" d="M-471,1164.5h149.37c5.75,0,10.42,4.67,10.42,10.42v237.96h-170.21v-237.96c0-5.75,4.67-10.42,10.42-10.42Z"/>
      <path class="st7" d="M-465.7,1169.54h138.77c5.5,0,9.96,4.46,9.96,9.96v233.38h-158.69v-233.38c0-5.5,4.46-9.96,9.96-9.96Z"/>
      <path class="st9" d="M-454.22,1187.65h34.08c1.66,0,3.01,1.35,3.01,3.01v107.79c0,1.66-1.35,3.01-3.01,3.01h-34.08c-1.66,0-3.01-1.35-3.01-3.01v-107.79c0-1.66,1.35-3.01,3.01-3.01Z"/>
      <rect class="st9" x="-378.99" y="1187.65" width="40.09" height="113.8" rx="-149.41" ry="-149.41"/>
      <rect class="st5" x="-398.07" y="1167.11" width="5.76" height="245.77"/>
    </g>
    <g>
      <path class="st5" d="M-1622.16,1166.94h180.28c3.93,0,7.13,3.19,7.13,7.13v80.78c0,3.93-3.19,7.13-7.13,7.13h-180.28c-3.93,0-7.13-3.19-7.13-7.13v-80.78c0-3.93,3.19-7.13,7.13-7.13Z"/>
      <path class="st9" d="M-1615.19,1171.38h166.35c3.5,0,6.35,2.84,6.35,6.35v71.96c0,3.5-2.84,6.35-6.35,6.35h-166.35c-3.5,0-6.35-2.84-6.35-6.35v-71.96c0-3.5,2.84-6.35,6.35-6.35Z"/>
      <polygon class="st1" points="-1575.49 1171.38 -1621.54 1221.63 -1621.35 1236.63 -1559.53 1171.38 -1575.49 1171.38"/>
      <path class="st1" d="M-1579.48,1256.03l73.12-84.66h26.59s-58.17,84.66-59.5,84.66h-40.22Z"/>
      <path class="st1" d="M-1500.04,1256.03c.67,0,57.54-56.01,57.54-56.01v14.08l-30.29,41.93h-27.26Z"/>
    </g>
    <g>
      <path class="st5" d="M-274.79,1160.48H-94.52c3.93,0,7.13,3.19,7.13,7.13v80.78c0,3.93-3.19,7.13-7.13,7.13h-180.28c-3.93,0-7.13-3.19-7.13-7.13v-80.78c0-3.93,3.19-7.13,7.13-7.13Z"/>
      <path class="st9" d="M-267.83,1164.92H-101.48c3.5,0,6.35,2.84,6.35,6.35v71.96c0,3.5-2.84,6.35-6.35,6.35h-166.35c-3.5,0-6.35-2.84-6.35-6.35v-71.96c0-3.5,2.84-6.35,6.35-6.35Z"/>
      <polygon class="st1" points="-228.12 1164.92 -274.18 1215.16 -273.99 1230.16 -212.17 1164.92 -228.12 1164.92"/>
      <path class="st1" d="M-232.11,1249.57l73.12-84.66h26.59s-58.17,84.66-59.5,84.66h-40.22Z"/>
      <path class="st1" d="M-152.67,1249.57c.66,0,57.54-56.01,57.54-56.01v14.08l-30.28,41.93h-27.25Z"/>
    </g>
    <g>
      <rect class="st5" x="-1188.7" y="1165.4" width="194.53" height="95.03" rx="-399.82" ry="-399.82"/>
      <path class="st9" d="M-1174.61,1169.83h166.35c3.5,0,6.35,2.84,6.35,6.35v71.96c0,3.5-2.84,6.35-6.35,6.35h-166.35c-3.5,0-6.35-2.84-6.35-6.35v-71.96c0-3.5,2.84-6.35,6.35-6.35Z"/>
      <polygon class="st1" points="-1134.9 1169.83 -1180.96 1220.08 -1180.77 1235.08 -1118.95 1169.83 -1134.9 1169.83"/>
      <path class="st1" d="M-1138.89,1254.49l73.12-84.66h26.59s-58.17,84.66-59.5,84.66h-40.22Z"/>
      <path class="st1" d="M-1059.45,1254.49c.66,0,57.54-56.01,57.54-56.01v14.08l-30.29,41.93h-27.26Z"/>
    </g>
    <g>
      <rect class="st5" x="-943.22" y="1165.76" width="194.53" height="95.03" rx="-277.08" ry="-277.08"/>
      <path class="st9" d="M-929.13,1170.2h166.35c3.5,0,6.35,2.84,6.35,6.35v71.96c0,3.5-2.84,6.35-6.35,6.35h-166.35c-3.5,0-6.35-2.84-6.35-6.35v-71.96c0-3.5,2.84-6.35,6.35-6.35Z"/>
      <polygon class="st1" points="-889.43 1170.2 -935.48 1220.45 -935.29 1235.45 -873.47 1170.2 -889.43 1170.2"/>
      <path class="st1" d="M-893.41,1254.86l73.12-84.66h26.59s-58.17,84.66-59.5,84.66h-40.22Z"/>
      <path class="st1" d="M-813.98,1254.86c.67,0,57.54-56.01,57.54-56.01v14.08l-30.28,41.93h-27.26Z"/>
    </g>
    <g>
      <path class="st5" d="M-695.99,1165.76h180.28c3.93,0,7.13,3.19,7.13,7.13v80.78c0,3.93-3.19,7.13-7.13,7.13h-180.28c-3.93,0-7.13-3.19-7.13-7.13v-80.78c0-3.93,3.19-7.13,7.13-7.13Z"/>
      <rect class="st9" x="-695.37" y="1170.2" width="179.05" height="84.66" rx="-168.64" ry="-168.64"/>
      <polygon class="st1" points="-649.32 1170.2 -695.37 1220.45 -695.18 1235.45 -633.36 1170.2 -649.32 1170.2"/>
      <path class="st1" d="M-653.31,1254.86l73.12-84.66h26.59s-58.17,84.66-59.5,84.66h-40.22Z"/>
      <path class="st1" d="M-573.87,1254.86c.66,0,57.54-56.01,57.54-56.01v14.08l-30.29,41.93h-27.26Z"/>
    </g>
    <polygon class="st4" points="-60.66 1373.64 -281.92 1373.64 -238.8 1336.21 -60.66 1336.21 -60.66 1373.64"/>
    <polygon class="st4" points="-1476.55 1373.64 -1653.54 1373.64 -1653.54 1336.21 -1433.26 1336.21 -1476.55 1373.64"/>
    <polygon class="st4" points="-694.97 1336.21 -728.86 1336.21 -1136.6 1336.21 -1191.48 1373.64 -728.86 1373.64 -694.97 1373.64 -551.88 1373.64 -508.58 1336.21 -694.97 1336.21"/>
    <path class="st2" d="M-1104.64,1078.01c17.23.59,34.78,1.16,51.41-3.39,2.28-.62,4.67-1.44,6.11-3.32,2.61-3.42.51-8.75-3.14-11.02-3.65-2.28-8.21-2.35-12.51-2.36-144.97-.19-289.95-.39-434.92-.58-18.02-.02-36.05-.05-54.07-.07-15.09-.02-33.28-2.82-47.78,2.16-8.24,2.83-21.61,10.61-11.95,19.46,9.39,8.6,39.12,1.09,50.59.33,71.61-4.72,143.39-6.41,215.15-6.33,80.36.08,160.83,1.78,241.12,5.13Z"/>
    <path class="st2" d="M-814.76,1079.19c20.62.34,41.53.65,61.51-4.46,2.72-.69,5.63-1.64,7.22-3.96,2.53-3.69.18-9.11-3.67-11.4-3.85-2.28-8.59-2.29-13.07-2.18-32.84.78-65.6,3.93-98.45,4.04-15.13.05-30.26-.55-45.37-1.14-10.31-.41-96.46-10.1-91.16,9.68,3.28,12.23,41.66,7.07,50.94,7.22,20.83.35,41.66.69,62.48,1.04,23.19.39,46.37.77,69.56,1.15Z"/>
  </g>
  <g>
    <path class="st9" d="M100.83,1025.09h225.35c2.69,0,4.88,2.19,4.88,4.88v27.65H95.95v-27.65c0-2.69,2.19-4.88,4.88-4.88Z"/>
    <path class="st9" d="M519.4,1021.92h225.35c2.69,0,4.88,2.19,4.88,4.88v27.65h-235.11v-27.65c0-2.69,2.19-4.88,4.88-4.88Z"/>
    <path class="st9" d="M937.98,1025.09h225.35c2.69,0,4.88,2.19,4.88,4.88v27.65h-235.11v-27.65c0-2.69,2.19-4.88,4.88-4.88Z"/>
    <path class="st9" d="M1356.55,1023.5h225.35c2.69,0,4.88,2.19,4.88,4.88v27.66h-235.1v-27.66c0-2.69,2.19-4.88,4.88-4.88Z"/>
    <rect class="st6" x="27.81" y="1403.16" width="1592.92" height="49.68"/>
    <g>
      <g>
        <circle class="st4" cx="154.65" cy="1492.15" r="43.71"/>
        <path class="st0" d="M188.2,1492.15c0,18.53-15.02,33.56-33.55,33.56s-33.56-15.02-33.56-33.56,15.02-33.55,33.56-33.55,33.55,15.02,33.55,33.55Z"/>
        <circle class="st4" cx="154.65" cy="1492.15" r="11.98"/>
      </g>
      <g>
        <path class="st4" d="M304.27,1492.15c0,24.14-19.57,43.71-43.71,43.71s-43.71-19.57-43.71-43.71,19.57-43.71,43.71-43.71,43.71,19.57,43.71,43.71Z"/>
        <path class="st0" d="M294.11,1492.15c0,18.53-15.02,33.56-33.56,33.56s-33.56-15.02-33.56-33.56,15.02-33.55,33.56-33.55,33.56,15.02,33.56,33.55Z"/>
        <circle class="st4" cx="260.56" cy="1492.15" r="11.98"/>
      </g>
      <g>
        <path class="st4" d="M410.18,1492.15c0,24.14-19.57,43.71-43.71,43.71s-43.71-19.57-43.71-43.71,19.57-43.71,43.71-43.71,43.71,19.57,43.71,43.71Z"/>
        <path class="st0" d="M400.02,1492.15c0,18.53-15.02,33.56-33.56,33.56s-33.55-15.02-33.55-33.56,15.02-33.55,33.55-33.55,33.56,15.02,33.56,33.55Z"/>
        <path class="st4" d="M378.45,1492.15c0,6.62-5.36,11.98-11.98,11.98s-11.98-5.36-11.98-11.98,5.36-11.98,11.98-11.98,11.98,5.36,11.98,11.98Z"/>
      </g>
      <polygon class="st9" points="443.2 1481.49 433.21 1435.97 279.46 1435.97 240.54 1435.97 86.79 1435.97 76.79 1481.49 71.46 1498.38 84.88 1498.38 95.87 1481.49 240.54 1481.49 279.46 1481.49 424.12 1481.49 435.12 1498.38 448.54 1498.38 443.2 1481.49"/>
    </g>
    <g>
      <g>
        <circle class="st4" cx="1283.16" cy="1492.15" r="43.71"/>
        <path class="st0" d="M1316.72,1492.15c0,18.53-15.02,33.56-33.56,33.56s-33.56-15.02-33.56-33.56,15.02-33.55,33.56-33.55,33.56,15.02,33.56,33.55Z"/>
        <circle class="st4" cx="1283.16" cy="1492.15" r="11.98"/>
      </g>
      <g>
        <path class="st4" d="M1432.78,1492.15c0,24.14-19.57,43.71-43.71,43.71s-43.72-19.57-43.72-43.71,19.57-43.71,43.72-43.71,43.71,19.57,43.71,43.71Z"/>
        <path class="st0" d="M1422.62,1492.15c0,18.53-15.02,33.56-33.55,33.56s-33.56-15.02-33.56-33.56,15.02-33.55,33.56-33.55,33.55,15.02,33.55,33.55Z"/>
        <circle class="st4" cx="1389.07" cy="1492.15" r="11.98"/>
      </g>
      <g>
        <path class="st4" d="M1538.69,1492.15c0,24.14-19.57,43.71-43.72,43.71s-43.71-19.57-43.71-43.71,19.57-43.71,43.71-43.71,43.72,19.57,43.72,43.71Z"/>
        <path class="st0" d="M1528.53,1492.15c0,18.53-15.02,33.56-33.56,33.56s-33.56-15.02-33.56-33.56,15.02-33.55,33.56-33.55,33.56,15.02,33.56,33.55Z"/>
        <circle class="st4" cx="1494.98" cy="1492.15" r="11.98"/>
      </g>
      <polygon class="st9" points="1571.72 1481.49 1561.72 1435.97 1407.97 1435.97 1369.05 1435.97 1215.3 1435.97 1205.31 1481.49 1199.97 1498.38 1213.39 1498.38 1224.38 1481.49 1369.05 1481.49 1407.97 1481.49 1552.64 1481.49 1563.63 1498.38 1577.05 1498.38 1571.72 1481.49"/>
    </g>
    <rect class="st6" x="-16.43" y="1102.88" width="44.24" height="294.65"/>
    <rect class="st6" x="1620.73" y="1102.88" width="44.24" height="294.65"/>
    <rect class="st8" x="27.81" y="1042.52" width="1592.92" height="371.02"/>
    <rect class="st5" x="27.81" y="1042.52" width="1592.92" height="81.21"/>
    <rect class="st4" x="27.81" y="1123.72" width="1592.92" height="164.97"/>
    <g>
      <path class="st5" d="M294.51,1164.5h149.37c5.75,0,10.42,4.67,10.42,10.42v237.96h-170.21v-237.96c0-5.75,4.67-10.42,10.42-10.42Z"/>
      <path class="st7" d="M299.81,1169.54h138.77c5.5,0,9.96,4.46,9.96,9.96v233.38h-158.69v-233.38c0-5.5,4.46-9.96,9.96-9.96Z"/>
      <rect class="st9" x="308.28" y="1187.65" width="40.09" height="113.8" rx="3.01" ry="3.01"/>
      <rect class="st9" x="386.52" y="1187.65" width="40.09" height="113.8" rx="3.01" ry="3.01"/>
      <rect class="st5" x="367.45" y="1167.11" width="5.76" height="245.77"/>
    </g>
    <g>
      <path class="st5" d="M1210.39,1164.5h149.37c5.75,0,10.42,4.67,10.42,10.42v237.96h-170.21v-237.96c0-5.75,4.67-10.42,10.42-10.42Z"/>
      <path class="st7" d="M1215.69,1169.54h138.77c5.5,0,9.96,4.46,9.96,9.96v233.38h-158.69v-233.38c0-5.5,4.46-9.96,9.96-9.96Z"/>
      <path class="st9" d="M1227.17,1187.65h34.08c1.66,0,3.01,1.35,3.01,3.01v107.79c0,1.66-1.35,3.01-3.01,3.01h-34.08c-1.66,0-3.01-1.35-3.01-3.01v-107.79c0-1.66,1.35-3.01,3.01-3.01Z"/>
      <rect class="st9" x="1302.4" y="1187.65" width="40.09" height="113.8" rx="3.01" ry="3.01"/>
      <rect class="st5" x="1283.33" y="1167.11" width="5.76" height="245.77"/>
    </g>
    <g>
      <path class="st5" d="M59.24,1166.94h180.28c3.93,0,7.13,3.19,7.13,7.13v80.78c0,3.93-3.19,7.13-7.13,7.13H59.24c-3.93,0-7.13-3.19-7.13-7.13v-80.78c0-3.93,3.19-7.13,7.13-7.13Z"/>
      <path class="st9" d="M66.2,1171.38h166.35c3.5,0,6.35,2.84,6.35,6.35v71.96c0,3.5-2.84,6.35-6.35,6.35H66.2c-3.5,0-6.35-2.84-6.35-6.35v-71.96c0-3.5,2.84-6.35,6.35-6.35Z"/>
      <polygon class="st1" points="105.91 1171.38 59.85 1221.63 60.04 1236.63 121.86 1171.38 105.91 1171.38"/>
      <path class="st1" d="M101.92,1256.03l73.12-84.66h26.59s-58.17,84.66-59.5,84.66h-40.22Z"/>
      <path class="st1" d="M181.36,1256.03c.67,0,57.54-56.01,57.54-56.01v14.08l-30.29,41.93h-27.26Z"/>
    </g>
    <g>
      <path class="st5" d="M1406.6,1160.48h180.28c3.93,0,7.13,3.19,7.13,7.13v80.78c0,3.93-3.19,7.13-7.13,7.13h-180.28c-3.93,0-7.13-3.19-7.13-7.13v-80.78c0-3.93,3.19-7.13,7.13-7.13Z"/>
      <path class="st9" d="M1413.56,1164.92h166.35c3.5,0,6.35,2.84,6.35,6.35v71.96c0,3.5-2.84,6.35-6.35,6.35h-166.35c-3.5,0-6.35-2.84-6.35-6.35v-71.96c0-3.5,2.84-6.35,6.35-6.35Z"/>
      <polygon class="st1" points="1453.27 1164.92 1407.22 1215.16 1407.41 1230.16 1469.23 1164.92 1453.27 1164.92"/>
      <path class="st1" d="M1449.28,1249.57l73.12-84.66h26.59s-58.17,84.66-59.5,84.66h-40.22Z"/>
      <path class="st1" d="M1528.72,1249.57c.66,0,57.54-56.01,57.54-56.01v14.08l-30.28,41.93h-27.25Z"/>
    </g>
    <g>
      <rect class="st5" x="492.69" y="1165.4" width="194.53" height="95.03" rx="7.13" ry="7.13"/>
      <path class="st9" d="M506.78,1169.83h166.35c3.5,0,6.35,2.84,6.35,6.35v71.96c0,3.5-2.84,6.35-6.35,6.35h-166.35c-3.5,0-6.35-2.84-6.35-6.35v-71.96c0-3.5,2.84-6.35,6.35-6.35Z"/>
      <polygon class="st1" points="546.49 1169.83 500.43 1220.08 500.62 1235.08 562.44 1169.83 546.49 1169.83"/>
      <path class="st1" d="M542.5,1254.49l73.12-84.66h26.59s-58.17,84.66-59.5,84.66h-40.22Z"/>
      <path class="st1" d="M621.94,1254.49c.66,0,57.54-56.01,57.54-56.01v14.08l-30.29,41.93h-27.26Z"/>
    </g>
    <g>
      <rect class="st5" x="738.17" y="1165.76" width="194.53" height="95.03" rx="7.13" ry="7.13"/>
      <path class="st9" d="M752.26,1170.2h166.35c3.5,0,6.35,2.84,6.35,6.35v71.96c0,3.5-2.84,6.35-6.35,6.35h-166.35c-3.5,0-6.35-2.84-6.35-6.35v-71.96c0-3.5,2.84-6.35,6.35-6.35Z"/>
      <polygon class="st1" points="791.97 1170.2 745.91 1220.45 746.1 1235.45 807.92 1170.2 791.97 1170.2"/>
      <path class="st1" d="M787.98,1254.86l73.12-84.66h26.59s-58.17,84.66-59.5,84.66h-40.22Z"/>
      <path class="st1" d="M867.42,1254.86c.67,0,57.54-56.01,57.54-56.01v14.08l-30.28,41.93h-27.26Z"/>
    </g>
    <g>
      <path class="st5" d="M985.41,1165.76h180.28c3.93,0,7.13,3.19,7.13,7.13v80.78c0,3.93-3.19,7.13-7.13,7.13h-180.28c-3.93,0-7.13-3.19-7.13-7.13v-80.78c0-3.93,3.19-7.13,7.13-7.13Z"/>
      <rect class="st9" x="986.02" y="1170.2" width="179.05" height="84.66" rx="6.35" ry="6.35"/>
      <polygon class="st1" points="1032.08 1170.2 986.02 1220.45 986.21 1235.45 1048.03 1170.2 1032.08 1170.2"/>
      <path class="st1" d="M1028.09,1254.86l73.12-84.66h26.59s-58.17,84.66-59.5,84.66h-40.22Z"/>
      <path class="st1" d="M1107.53,1254.86c.66,0,57.54-56.01,57.54-56.01v14.08l-30.29,41.93h-27.26Z"/>
    </g>
    <polygon class="st4" points="1620.73 1373.64 1399.47 1373.64 1442.6 1336.21 1620.73 1336.21 1620.73 1373.64"/>
    <polygon class="st4" points="204.84 1373.64 27.85 1373.64 27.85 1336.21 248.13 1336.21 204.84 1373.64"/>
    <polygon class="st4" points="986.42 1336.21 952.53 1336.21 544.8 1336.21 489.92 1373.64 952.53 1373.64 986.42 1373.64 1129.52 1373.64 1172.81 1336.21 986.42 1336.21"/>
    <path class="st2" d="M576.76,1078.01c17.23.59,34.78,1.16,51.41-3.39,2.28-.62,4.67-1.44,6.11-3.32,2.61-3.42.51-8.75-3.14-11.02-3.65-2.28-8.21-2.35-12.51-2.36-144.97-.19-289.95-.39-434.92-.58-18.02-.02-36.05-.05-54.07-.07-15.09-.02-33.28-2.82-47.78,2.16-8.24,2.83-21.61,10.61-11.95,19.46,9.39,8.6,39.12,1.09,50.59.33,71.61-4.72,143.39-6.41,215.15-6.33,80.36.08,160.83,1.78,241.12,5.13Z"/>
    <path class="st2" d="M866.63,1079.19c20.62.34,41.53.65,61.51-4.46,2.72-.69,5.63-1.64,7.22-3.96,2.53-3.69.18-9.11-3.67-11.4-3.85-2.28-8.59-2.29-13.07-2.18-32.84.78-65.6,3.93-98.45,4.04-15.13.05-30.26-.55-45.37-1.14-10.31-.41-96.46-10.1-91.16,9.68,3.28,12.23,41.66,7.07,50.94,7.22,20.83.35,41.66.69,62.48,1.04,23.19.39,46.37.77,69.56,1.15Z"/>
  </g>
  <g>
    <path class="st9" d="M1782.22,1025.09h225.35c2.69,0,4.88,2.19,4.88,4.88v27.65h-235.1v-27.65c0-2.69,2.19-4.88,4.88-4.88Z"/>
    <path class="st9" d="M2200.8,1021.92h225.35c2.69,0,4.88,2.19,4.88,4.88v27.65h-235.11v-27.65c0-2.69,2.19-4.88,4.88-4.88Z"/>
    <path class="st9" d="M2619.37,1025.09h225.35c2.69,0,4.88,2.19,4.88,4.88v27.65h-235.11v-27.65c0-2.69,2.19-4.88,4.88-4.88Z"/>
    <path class="st9" d="M3037.95,1023.5h225.35c2.69,0,4.88,2.19,4.88,4.88v27.66h-235.1v-27.66c0-2.69,2.19-4.88,4.88-4.88Z"/>
    <rect class="st6" x="1709.21" y="1403.16" width="1592.92" height="49.68"/>
    <g>
      <g>
        <circle class="st4" cx="1836.04" cy="1492.15" r="43.71"/>
        <path class="st0" d="M1869.6,1492.15c0,18.53-15.02,33.56-33.55,33.56s-33.56-15.02-33.56-33.56,15.02-33.55,33.56-33.55,33.55,15.02,33.55,33.55Z"/>
        <circle class="st4" cx="1836.04" cy="1492.15" r="11.98"/>
      </g>
      <g>
        <path class="st4" d="M1985.67,1492.15c0,24.14-19.57,43.71-43.71,43.71s-43.71-19.57-43.71-43.71,19.57-43.71,43.71-43.71,43.71,19.57,43.71,43.71Z"/>
        <path class="st0" d="M1975.51,1492.15c0,18.53-15.02,33.56-33.56,33.56s-33.56-15.02-33.56-33.56,15.02-33.55,33.56-33.55,33.56,15.02,33.56,33.55Z"/>
        <circle class="st4" cx="1941.95" cy="1492.15" r="11.98"/>
      </g>
      <g>
        <path class="st4" d="M2091.57,1492.15c0,24.14-19.57,43.71-43.71,43.71s-43.71-19.57-43.71-43.71,19.57-43.71,43.71-43.71,43.71,19.57,43.71,43.71Z"/>
        <path class="st0" d="M2081.42,1492.15c0,18.53-15.02,33.56-33.56,33.56s-33.55-15.02-33.55-33.56,15.02-33.55,33.55-33.55,33.56,15.02,33.56,33.55Z"/>
        <path class="st4" d="M2059.84,1492.15c0,6.62-5.36,11.98-11.98,11.98s-11.98-5.36-11.98-11.98,5.36-11.98,11.98-11.98,11.98,5.36,11.98,11.98Z"/>
      </g>
      <polygon class="st9" points="2124.6 1481.49 2114.6 1435.97 1960.85 1435.97 1921.93 1435.97 1768.18 1435.97 1758.19 1481.49 1752.85 1498.38 1766.27 1498.38 1777.27 1481.49 1921.93 1481.49 1960.85 1481.49 2105.52 1481.49 2116.51 1498.38 2129.93 1498.38 2124.6 1481.49"/>
    </g>
    <g>
      <g>
        <circle class="st4" cx="2964.55" cy="1492.15" r="43.71"/>
        <path class="st0" d="M2998.11,1492.15c0,18.53-15.02,33.56-33.56,33.56s-33.56-15.02-33.56-33.56,15.02-33.55,33.56-33.55,33.56,15.02,33.56,33.55Z"/>
        <circle class="st4" cx="2964.55" cy="1492.15" r="11.98"/>
      </g>
      <g>
        <path class="st4" d="M3114.18,1492.15c0,24.14-19.57,43.71-43.71,43.71s-43.72-19.57-43.72-43.71,19.57-43.71,43.72-43.71,43.71,19.57,43.71,43.71Z"/>
        <path class="st0" d="M3104.02,1492.15c0,18.53-15.02,33.56-33.55,33.56s-33.56-15.02-33.56-33.56,15.02-33.55,33.56-33.55,33.55,15.02,33.55,33.55Z"/>
        <circle class="st4" cx="3070.46" cy="1492.15" r="11.98"/>
      </g>
      <g>
        <path class="st4" d="M3220.09,1492.15c0,24.14-19.57,43.71-43.72,43.71s-43.71-19.57-43.71-43.71,19.57-43.71,43.71-43.71,43.72,19.57,43.72,43.71Z"/>
        <path class="st0" d="M3209.93,1492.15c0,18.53-15.02,33.56-33.56,33.56s-33.56-15.02-33.56-33.56,15.02-33.55,33.56-33.55,33.56,15.02,33.56,33.55Z"/>
        <circle class="st4" cx="3176.37" cy="1492.15" r="11.98"/>
      </g>
      <polygon class="st9" points="3253.11 1481.49 3243.11 1435.97 3089.36 1435.97 3050.45 1435.97 2896.7 1435.97 2886.7 1481.49 2881.36 1498.38 2894.78 1498.38 2905.78 1481.49 3050.45 1481.49 3089.36 1481.49 3234.03 1481.49 3245.03 1498.38 3258.45 1498.38 3253.11 1481.49"/>
    </g>
    <rect class="st6" x="1664.97" y="1102.88" width="44.24" height="294.65"/>
    <rect class="st6" x="3302.13" y="1102.88" width="44.24" height="294.65"/>
    <rect class="st8" x="1709.21" y="1042.52" width="1592.92" height="371.02"/>
    <rect class="st5" x="1709.21" y="1042.52" width="1592.92" height="81.21"/>
    <rect class="st4" x="1709.21" y="1123.72" width="1592.92" height="164.97"/>
    <g>
      <path class="st5" d="M1975.9,1164.5h149.37c5.75,0,10.42,4.67,10.42,10.42v237.96h-170.21v-237.96c0-5.75,4.67-10.42,10.42-10.42Z"/>
      <path class="st7" d="M1981.21,1169.54h138.77c5.5,0,9.96,4.46,9.96,9.96v233.38h-158.69v-233.38c0-5.5,4.46-9.96,9.96-9.96Z"/>
      <rect class="st9" x="1989.68" y="1187.65" width="40.09" height="113.8" rx="3.01" ry="3.01"/>
      <rect class="st9" x="2067.92" y="1187.65" width="40.09" height="113.8" rx="3.01" ry="3.01"/>
      <rect class="st5" x="2048.84" y="1167.11" width="5.76" height="245.77"/>
    </g>
    <g>
      <path class="st5" d="M2891.78,1164.5h149.37c5.75,0,10.42,4.67,10.42,10.42v237.96h-170.21v-237.96c0-5.75,4.67-10.42,10.42-10.42Z"/>
      <path class="st7" d="M2897.09,1169.54h138.77c5.5,0,9.96,4.46,9.96,9.96v233.38h-158.69v-233.38c0-5.5,4.46-9.96,9.96-9.96Z"/>
      <path class="st9" d="M2908.57,1187.65h34.08c1.66,0,3.01,1.35,3.01,3.01v107.79c0,1.66-1.35,3.01-3.01,3.01h-34.08c-1.66,0-3.01-1.35-3.01-3.01v-107.79c0-1.66,1.35-3.01,3.01-3.01Z"/>
      <rect class="st9" x="2983.8" y="1187.65" width="40.09" height="113.8" rx="3.01" ry="3.01"/>
      <rect class="st5" x="2964.72" y="1167.11" width="5.76" height="245.77"/>
    </g>
    <g>
      <path class="st5" d="M1740.63,1166.94h180.28c3.93,0,7.13,3.19,7.13,7.13v80.78c0,3.93-3.19,7.13-7.13,7.13h-180.28c-3.93,0-7.13-3.19-7.13-7.13v-80.78c0-3.93,3.19-7.13,7.13-7.13Z"/>
      <path class="st9" d="M1747.59,1171.38h166.35c3.5,0,6.35,2.84,6.35,6.35v71.96c0,3.5-2.84,6.35-6.35,6.35h-166.35c-3.5,0-6.35-2.84-6.35-6.35v-71.96c0-3.5,2.84-6.35,6.35-6.35Z"/>
      <polygon class="st1" points="1787.3 1171.38 1741.24 1221.63 1741.43 1236.63 1803.26 1171.38 1787.3 1171.38"/>
      <path class="st1" d="M1783.31,1256.03l73.12-84.66h26.59s-58.17,84.66-59.5,84.66h-40.22Z"/>
      <path class="st1" d="M1862.75,1256.03c.67,0,57.54-56.01,57.54-56.01v14.08l-30.29,41.93h-27.26Z"/>
    </g>
    <g>
      <path class="st5" d="M3088,1160.48h180.28c3.93,0,7.13,3.19,7.13,7.13v80.78c0,3.93-3.19,7.13-7.13,7.13h-180.28c-3.93,0-7.13-3.19-7.13-7.13v-80.78c0-3.93,3.19-7.13,7.13-7.13Z"/>
      <path class="st9" d="M3094.96,1164.92h166.35c3.5,0,6.35,2.84,6.35,6.35v71.96c0,3.5-2.84,6.35-6.35,6.35h-166.35c-3.5,0-6.35-2.84-6.35-6.35v-71.96c0-3.5,2.84-6.35,6.35-6.35Z"/>
      <polygon class="st1" points="3134.67 1164.92 3088.61 1215.16 3088.8 1230.16 3150.62 1164.92 3134.67 1164.92"/>
      <path class="st1" d="M3130.68,1249.57l73.12-84.66h26.59s-58.17,84.66-59.5,84.66h-40.22Z"/>
      <path class="st1" d="M3210.12,1249.57c.66,0,57.54-56.01,57.54-56.01v14.08l-30.28,41.93h-27.25Z"/>
    </g>
    <g>
      <rect class="st5" x="2174.09" y="1165.4" width="194.53" height="95.03" rx="7.13" ry="7.13"/>
      <path class="st9" d="M2188.17,1169.83h166.35c3.5,0,6.35,2.84,6.35,6.35v71.96c0,3.5-2.84,6.35-6.35,6.35h-166.35c-3.5,0-6.35-2.84-6.35-6.35v-71.96c0-3.5,2.84-6.35,6.35-6.35Z"/>
      <polygon class="st1" points="2227.88 1169.83 2181.83 1220.08 2182.02 1235.08 2243.84 1169.83 2227.88 1169.83"/>
      <path class="st1" d="M2223.89,1254.49l73.12-84.66h26.59s-58.17,84.66-59.5,84.66h-40.22Z"/>
      <path class="st1" d="M2303.34,1254.49c.66,0,57.54-56.01,57.54-56.01v14.08l-30.29,41.93h-27.26Z"/>
    </g>
    <g>
      <rect class="st5" x="2419.56" y="1165.76" width="194.53" height="95.03" rx="7.13" ry="7.13"/>
      <path class="st9" d="M2433.65,1170.2h166.35c3.5,0,6.35,2.84,6.35,6.35v71.96c0,3.5-2.84,6.35-6.35,6.35h-166.35c-3.5,0-6.35-2.84-6.35-6.35v-71.96c0-3.5,2.84-6.35,6.35-6.35Z"/>
      <polygon class="st1" points="2473.36 1170.2 2427.31 1220.45 2427.5 1235.45 2489.32 1170.2 2473.36 1170.2"/>
      <path class="st1" d="M2469.37,1254.86l73.12-84.66h26.59s-58.17,84.66-59.5,84.66h-40.22Z"/>
      <path class="st1" d="M2548.81,1254.86c.67,0,57.54-56.01,57.54-56.01v14.08l-30.28,41.93h-27.26Z"/>
    </g>
    <g>
      <path class="st5" d="M2666.8,1165.76h180.28c3.93,0,7.13,3.19,7.13,7.13v80.78c0,3.93-3.19,7.13-7.13,7.13h-180.28c-3.93,0-7.13-3.19-7.13-7.13v-80.78c0-3.93,3.19-7.13,7.13-7.13Z"/>
      <rect class="st9" x="2667.41" y="1170.2" width="179.05" height="84.66" rx="6.35" ry="6.35"/>
      <polygon class="st1" points="2713.47 1170.2 2667.41 1220.45 2667.6 1235.45 2729.43 1170.2 2713.47 1170.2"/>
      <path class="st1" d="M2709.48,1254.86l73.12-84.66h26.59s-58.17,84.66-59.5,84.66h-40.22Z"/>
      <path class="st1" d="M2788.92,1254.86c.66,0,57.54-56.01,57.54-56.01v14.08l-30.29,41.93h-27.26Z"/>
    </g>
    <polygon class="st4" points="3302.13 1373.64 3080.87 1373.64 3123.99 1336.21 3302.13 1336.21 3302.13 1373.64"/>
    <polygon class="st4" points="1886.23 1373.64 1709.25 1373.64 1709.25 1336.21 1929.52 1336.21 1886.23 1373.64"/>
    <polygon class="st4" points="2667.82 1336.21 2633.92 1336.21 2226.19 1336.21 2171.31 1373.64 2633.92 1373.64 2667.82 1373.64 2810.91 1373.64 2854.2 1336.21 2667.82 1336.21"/>
    <path class="st2" d="M2258.15,1078.01c17.23.59,34.78,1.16,51.41-3.39,2.28-.62,4.67-1.44,6.11-3.32,2.61-3.42.51-8.75-3.14-11.02-3.65-2.28-8.21-2.35-12.51-2.36-144.97-.19-289.95-.39-434.92-.58-18.02-.02-36.05-.05-54.07-.07-15.09-.02-33.28-2.82-47.78,2.16-8.24,2.83-21.61,10.61-11.95,19.46,9.39,8.6,39.12,1.09,50.59.33,71.61-4.72,143.39-6.41,215.15-6.33,80.36.08,160.83,1.78,241.12,5.13Z"/>
    <path class="st2" d="M2548.03,1079.19c20.62.34,41.53.65,61.51-4.46,2.72-.69,5.63-1.64,7.22-3.96,2.53-3.69.18-9.11-3.67-11.4-3.85-2.28-8.59-2.29-13.07-2.18-32.84.78-65.6,3.93-98.45,4.04-15.13.05-30.26-.55-45.37-1.14-10.31-.41-96.46-10.1-91.16,9.68,3.28,12.23,41.66,7.07,50.94,7.22,20.83.35,41.66.69,62.48,1.04,23.19.39,46.37.77,69.56,1.15Z"/>
  </g>
  <g>
    <path class="st9" d="M3463.61,1025.09h225.35c2.69,0,4.88,2.19,4.88,4.88v27.65h-235.1v-27.65c0-2.69,2.19-4.88,4.88-4.88Z"/>
    <path class="st9" d="M3882.19,1021.92h225.35c2.69,0,4.88,2.19,4.88,4.88v27.65h-235.11v-27.65c0-2.69,2.19-4.88,4.88-4.88Z"/>
    <path class="st9" d="M4300.77,1025.09h225.35c2.69,0,4.88,2.19,4.88,4.88v27.65h-235.11v-27.65c0-2.69,2.19-4.88,4.88-4.88Z"/>
    <path class="st9" d="M4719.34,1023.5h225.35c2.69,0,4.88,2.19,4.88,4.88v27.66h-235.1v-27.66c0-2.69,2.19-4.88,4.88-4.88Z"/>
    <rect class="st6" x="3390.6" y="1403.16" width="1592.92" height="49.68"/>
    <g>
      <g>
        <circle class="st4" cx="3517.44" cy="1492.15" r="43.71"/>
        <path class="st0" d="M3550.99,1492.15c0,18.53-15.02,33.56-33.55,33.56s-33.56-15.02-33.56-33.56,15.02-33.55,33.56-33.55,33.55,15.02,33.55,33.55Z"/>
        <circle class="st4" cx="3517.44" cy="1492.15" r="11.98"/>
      </g>
      <g>
        <path class="st4" d="M3667.06,1492.15c0,24.14-19.57,43.71-43.71,43.71s-43.71-19.57-43.71-43.71,19.57-43.71,43.71-43.71,43.71,19.57,43.71,43.71Z"/>
        <path class="st0" d="M3656.9,1492.15c0,18.53-15.02,33.56-33.56,33.56s-33.56-15.02-33.56-33.56,15.02-33.55,33.56-33.55,33.56,15.02,33.56,33.55Z"/>
        <circle class="st4" cx="3623.34" cy="1492.15" r="11.98"/>
      </g>
      <g>
        <path class="st4" d="M3772.97,1492.15c0,24.14-19.57,43.71-43.71,43.71s-43.71-19.57-43.71-43.71,19.57-43.71,43.71-43.71,43.71,19.57,43.71,43.71Z"/>
        <path class="st0" d="M3762.81,1492.15c0,18.53-15.02,33.56-33.56,33.56s-33.55-15.02-33.55-33.56,15.02-33.55,33.55-33.55,33.56,15.02,33.56,33.55Z"/>
        <path class="st4" d="M3741.23,1492.15c0,6.62-5.36,11.98-11.98,11.98s-11.98-5.36-11.98-11.98,5.36-11.98,11.98-11.98,11.98,5.36,11.98,11.98Z"/>
      </g>
      <polygon class="st9" points="3805.99 1481.49 3795.99 1435.97 3642.24 1435.97 3603.33 1435.97 3449.58 1435.97 3439.58 1481.49 3434.25 1498.38 3447.66 1498.38 3458.66 1481.49 3603.33 1481.49 3642.24 1481.49 3786.91 1481.49 3797.91 1498.38 3811.33 1498.38 3805.99 1481.49"/>
    </g>
    <g>
      <g>
        <circle class="st4" cx="4645.95" cy="1492.15" r="43.71"/>
        <path class="st0" d="M4679.5,1492.15c0,18.53-15.02,33.56-33.56,33.56s-33.56-15.02-33.56-33.56,15.02-33.55,33.56-33.55,33.56,15.02,33.56,33.55Z"/>
        <circle class="st4" cx="4645.95" cy="1492.15" r="11.98"/>
      </g>
      <g>
        <path class="st4" d="M4795.57,1492.15c0,24.14-19.57,43.71-43.71,43.71s-43.72-19.57-43.72-43.71,19.57-43.71,43.72-43.71,43.71,19.57,43.71,43.71Z"/>
        <path class="st0" d="M4785.41,1492.15c0,18.53-15.02,33.56-33.55,33.56s-33.56-15.02-33.56-33.56,15.02-33.55,33.56-33.55,33.55,15.02,33.55,33.55Z"/>
        <circle class="st4" cx="4751.86" cy="1492.15" r="11.98"/>
      </g>
      <g>
        <path class="st4" d="M4901.48,1492.15c0,24.14-19.57,43.71-43.72,43.71s-43.71-19.57-43.71-43.71,19.57-43.71,43.71-43.71,43.72,19.57,43.72,43.71Z"/>
        <path class="st0" d="M4891.32,1492.15c0,18.53-15.02,33.56-33.56,33.56s-33.56-15.02-33.56-33.56,15.02-33.55,33.56-33.55,33.56,15.02,33.56,33.55Z"/>
        <circle class="st4" cx="4857.77" cy="1492.15" r="11.98"/>
      </g>
      <polygon class="st9" points="4934.5 1481.49 4924.51 1435.97 4770.76 1435.97 4731.84 1435.97 4578.09 1435.97 4568.09 1481.49 4562.76 1498.38 4576.18 1498.38 4587.17 1481.49 4731.84 1481.49 4770.76 1481.49 4915.42 1481.49 4926.42 1498.38 4939.84 1498.38 4934.5 1481.49"/>
    </g>
    <rect class="st6" x="3346.36" y="1102.88" width="44.24" height="294.65"/>
    <rect class="st6" x="4983.52" y="1102.88" width="44.24" height="294.65"/>
    <rect class="st8" x="3390.6" y="1042.52" width="1592.92" height="371.02"/>
    <rect class="st5" x="3390.6" y="1042.52" width="1592.92" height="81.21"/>
    <rect class="st4" x="3390.6" y="1123.72" width="1592.92" height="164.97"/>
    <g>
      <path class="st5" d="M3657.3,1164.5h149.37c5.75,0,10.42,4.67,10.42,10.42v237.96h-170.21v-237.96c0-5.75,4.67-10.42,10.42-10.42Z"/>
      <path class="st7" d="M3662.6,1169.54h138.77c5.5,0,9.96,4.46,9.96,9.96v233.38h-158.69v-233.38c0-5.5,4.46-9.96,9.96-9.96Z"/>
      <rect class="st9" x="3671.07" y="1187.65" width="40.09" height="113.8" rx="3.01" ry="3.01"/>
      <rect class="st9" x="3749.31" y="1187.65" width="40.09" height="113.8" rx="3.01" ry="3.01"/>
      <rect class="st5" x="3730.23" y="1167.11" width="5.76" height="245.77"/>
    </g>
    <g>
      <path class="st5" d="M4573.18,1164.5h149.37c5.75,0,10.42,4.67,10.42,10.42v237.96h-170.21v-237.96c0-5.75,4.67-10.42,10.42-10.42Z"/>
      <path class="st7" d="M4578.48,1169.54h138.77c5.5,0,9.96,4.46,9.96,9.96v233.38h-158.69v-233.38c0-5.5,4.46-9.96,9.96-9.96Z"/>
      <path class="st9" d="M4589.96,1187.65h34.08c1.66,0,3.01,1.35,3.01,3.01v107.79c0,1.66-1.35,3.01-3.01,3.01h-34.08c-1.66,0-3.01-1.35-3.01-3.01v-107.79c0-1.66,1.35-3.01,3.01-3.01Z"/>
      <rect class="st9" x="4665.19" y="1187.65" width="40.09" height="113.8" rx="3.01" ry="3.01"/>
      <rect class="st5" x="4646.11" y="1167.11" width="5.76" height="245.77"/>
    </g>
    <g>
      <path class="st5" d="M3422.02,1166.94h180.28c3.93,0,7.13,3.19,7.13,7.13v80.78c0,3.93-3.19,7.13-7.13,7.13h-180.28c-3.93,0-7.13-3.19-7.13-7.13v-80.78c0-3.93,3.19-7.13,7.13-7.13Z"/>
      <path class="st9" d="M3428.99,1171.38h166.35c3.5,0,6.35,2.84,6.35,6.35v71.96c0,3.5-2.84,6.35-6.35,6.35h-166.35c-3.5,0-6.35-2.84-6.35-6.35v-71.96c0-3.5,2.84-6.35,6.35-6.35Z"/>
      <polygon class="st1" points="3468.7 1171.38 3422.64 1221.63 3422.83 1236.63 3484.65 1171.38 3468.7 1171.38"/>
      <path class="st1" d="M3464.71,1256.03l73.12-84.66h26.59s-58.17,84.66-59.5,84.66h-40.22Z"/>
      <path class="st1" d="M3544.15,1256.03c.67,0,57.54-56.01,57.54-56.01v14.08l-30.29,41.93h-27.26Z"/>
    </g>
    <g>
      <path class="st5" d="M4769.39,1160.48h180.28c3.93,0,7.13,3.19,7.13,7.13v80.78c0,3.93-3.19,7.13-7.13,7.13h-180.28c-3.93,0-7.13-3.19-7.13-7.13v-80.78c0-3.93,3.19-7.13,7.13-7.13Z"/>
      <path class="st9" d="M4776.35,1164.92h166.35c3.5,0,6.35,2.84,6.35,6.35v71.96c0,3.5-2.84,6.35-6.35,6.35h-166.35c-3.5,0-6.35-2.84-6.35-6.35v-71.96c0-3.5,2.84-6.35,6.35-6.35Z"/>
      <polygon class="st1" points="4816.06 1164.92 4770 1215.16 4770.2 1230.16 4832.02 1164.92 4816.06 1164.92"/>
      <path class="st1" d="M4812.07,1249.57l73.12-84.66h26.59s-58.17,84.66-59.5,84.66h-40.22Z"/>
      <path class="st1" d="M4891.51,1249.57c.66,0,57.54-56.01,57.54-56.01v14.08l-30.28,41.93h-27.25Z"/>
    </g>
    <g>
      <rect class="st5" x="3855.48" y="1165.4" width="194.53" height="95.03" rx="7.13" ry="7.13"/>
      <path class="st9" d="M3869.57,1169.83h166.35c3.5,0,6.35,2.84,6.35,6.35v71.96c0,3.5-2.84,6.35-6.35,6.35h-166.35c-3.5,0-6.35-2.84-6.35-6.35v-71.96c0-3.5,2.84-6.35,6.35-6.35Z"/>
      <polygon class="st1" points="3909.28 1169.83 3863.22 1220.08 3863.41 1235.08 3925.23 1169.83 3909.28 1169.83"/>
      <path class="st1" d="M3905.29,1254.49l73.12-84.66h26.59s-58.17,84.66-59.5,84.66h-40.22Z"/>
      <path class="st1" d="M3984.73,1254.49c.66,0,57.54-56.01,57.54-56.01v14.08l-30.29,41.93h-27.26Z"/>
    </g>
    <g>
      <rect class="st5" x="4100.96" y="1165.76" width="194.53" height="95.03" rx="7.13" ry="7.13"/>
      <path class="st9" d="M4115.05,1170.2h166.35c3.5,0,6.35,2.84,6.35,6.35v71.96c0,3.5-2.84,6.35-6.35,6.35h-166.35c-3.5,0-6.35-2.84-6.35-6.35v-71.96c0-3.5,2.84-6.35,6.35-6.35Z"/>
      <polygon class="st1" points="4154.76 1170.2 4108.7 1220.45 4108.89 1235.45 4170.71 1170.2 4154.76 1170.2"/>
      <path class="st1" d="M4150.77,1254.86l73.12-84.66h26.59s-58.17,84.66-59.5,84.66h-40.22Z"/>
      <path class="st1" d="M4230.21,1254.86c.67,0,57.54-56.01,57.54-56.01v14.08l-30.28,41.93h-27.26Z"/>
    </g>
    <g>
      <path class="st5" d="M4348.19,1165.76h180.28c3.93,0,7.13,3.19,7.13,7.13v80.78c0,3.93-3.19,7.13-7.13,7.13h-180.28c-3.93,0-7.13-3.19-7.13-7.13v-80.78c0-3.93,3.19-7.13,7.13-7.13Z"/>
      <rect class="st9" x="4348.81" y="1170.2" width="179.05" height="84.66" rx="6.35" ry="6.35"/>
      <polygon class="st1" points="4394.87 1170.2 4348.81 1220.45 4349 1235.45 4410.82 1170.2 4394.87 1170.2"/>
      <path class="st1" d="M4390.88,1254.86l73.12-84.66h26.59s-58.17,84.66-59.5,84.66h-40.22Z"/>
      <path class="st1" d="M4470.32,1254.86c.66,0,57.54-56.01,57.54-56.01v14.08l-30.29,41.93h-27.26Z"/>
    </g>
    <polygon class="st4" points="4983.52 1373.64 4762.26 1373.64 4805.38 1336.21 4983.52 1336.21 4983.52 1373.64"/>
    <polygon class="st4" points="3567.63 1373.64 3390.64 1373.64 3390.64 1336.21 3610.92 1336.21 3567.63 1373.64"/>
    <polygon class="st4" points="4349.21 1336.21 4315.32 1336.21 3907.58 1336.21 3852.71 1373.64 4315.32 1373.64 4349.21 1373.64 4492.31 1373.64 4535.6 1336.21 4349.21 1336.21"/>
    <path class="st2" d="M3939.55,1078.01c17.23.59,34.78,1.16,51.41-3.39,2.28-.62,4.67-1.44,6.11-3.32,2.61-3.42.51-8.75-3.14-11.02-3.65-2.28-8.21-2.35-12.51-2.36-144.97-.19-289.95-.39-434.92-.58-18.02-.02-36.05-.05-54.07-.07-15.09-.02-33.28-2.82-47.78,2.16-8.24,2.83-21.61,10.61-11.95,19.46,9.39,8.6,39.12,1.09,50.59.33,71.61-4.72,143.39-6.41,215.15-6.33,80.36.08,160.83,1.78,241.12,5.13Z"/>
    <path class="st2" d="M4229.42,1079.19c20.62.34,41.53.65,61.51-4.46,2.72-.69,5.63-1.64,7.22-3.96,2.53-3.69.18-9.11-3.67-11.4-3.85-2.28-8.59-2.29-13.07-2.18-32.84.78-65.6,3.93-98.45,4.04-15.13.05-30.26-.55-45.37-1.14-10.31-.41-96.46-10.1-91.16,9.68,3.28,12.23,41.66,7.07,50.94,7.22,20.83.35,41.66.69,62.48,1.04,23.19.39,46.37.77,69.56,1.15Z"/>
  </g>
  <g>
    <path class="st9" d="M5145.01,1025.09h225.35c2.69,0,4.88,2.19,4.88,4.88v27.65h-235.1v-27.65c0-2.69,2.19-4.88,4.88-4.88Z"/>
    <path class="st9" d="M5563.58,1021.92h225.35c2.69,0,4.88,2.19,4.88,4.88v27.65h-235.11v-27.65c0-2.69,2.19-4.88,4.88-4.88Z"/>
    <path class="st9" d="M5982.16,1025.09h225.35c2.69,0,4.88,2.19,4.88,4.88v27.65h-235.11v-27.65c0-2.69,2.19-4.88,4.88-4.88Z"/>
    <path class="st9" d="M6400.74,1023.5h225.35c2.69,0,4.88,2.19,4.88,4.88v27.66h-235.1v-27.66c0-2.69,2.19-4.88,4.88-4.88Z"/>
    <rect class="st6" x="5072" y="1403.16" width="1592.92" height="49.68"/>
    <g>
      <g>
        <circle class="st4" cx="5198.83" cy="1492.15" r="43.71"/>
        <path class="st0" d="M5232.38,1492.15c0,18.53-15.02,33.56-33.55,33.56s-33.56-15.02-33.56-33.56,15.02-33.55,33.56-33.55,33.55,15.02,33.55,33.55Z"/>
        <circle class="st4" cx="5198.83" cy="1492.15" r="11.98"/>
      </g>
      <g>
        <path class="st4" d="M5348.45,1492.15c0,24.14-19.57,43.71-43.71,43.71s-43.71-19.57-43.71-43.71,19.57-43.71,43.71-43.71,43.71,19.57,43.71,43.71Z"/>
        <path class="st0" d="M5338.29,1492.15c0,18.53-15.02,33.56-33.56,33.56s-33.56-15.02-33.56-33.56,15.02-33.55,33.56-33.55,33.56,15.02,33.56,33.55Z"/>
        <circle class="st4" cx="5304.74" cy="1492.15" r="11.98"/>
      </g>
      <g>
        <path class="st4" d="M5454.36,1492.15c0,24.14-19.57,43.71-43.71,43.71s-43.71-19.57-43.71-43.71,19.57-43.71,43.71-43.71,43.71,19.57,43.71,43.71Z"/>
        <path class="st0" d="M5444.2,1492.15c0,18.53-15.02,33.56-33.56,33.56s-33.55-15.02-33.55-33.56,15.02-33.55,33.55-33.55,33.56,15.02,33.56,33.55Z"/>
        <path class="st4" d="M5422.63,1492.15c0,6.62-5.36,11.98-11.98,11.98s-11.98-5.36-11.98-11.98,5.36-11.98,11.98-11.98,11.98,5.36,11.98,11.98Z"/>
      </g>
      <polygon class="st9" points="5487.39 1481.49 5477.39 1435.97 5323.64 1435.97 5284.72 1435.97 5130.97 1435.97 5120.98 1481.49 5115.64 1498.38 5129.06 1498.38 5140.06 1481.49 5284.72 1481.49 5323.64 1481.49 5468.31 1481.49 5479.3 1498.38 5492.72 1498.38 5487.39 1481.49"/>
    </g>
    <g>
      <g>
        <circle class="st4" cx="6327.34" cy="1492.15" r="43.71"/>
        <path class="st0" d="M6360.9,1492.15c0,18.53-15.02,33.56-33.56,33.56s-33.56-15.02-33.56-33.56,15.02-33.55,33.56-33.55,33.56,15.02,33.56,33.55Z"/>
        <circle class="st4" cx="6327.34" cy="1492.15" r="11.98"/>
      </g>
      <g>
        <path class="st4" d="M6476.97,1492.15c0,24.14-19.57,43.71-43.71,43.71s-43.72-19.57-43.72-43.71,19.57-43.71,43.72-43.71,43.71,19.57,43.71,43.71Z"/>
        <path class="st0" d="M6466.81,1492.15c0,18.53-15.02,33.56-33.55,33.56s-33.56-15.02-33.56-33.56,15.02-33.55,33.56-33.55,33.55,15.02,33.55,33.55Z"/>
        <circle class="st4" cx="6433.25" cy="1492.15" r="11.98"/>
      </g>
      <g>
        <path class="st4" d="M6582.87,1492.15c0,24.14-19.57,43.71-43.72,43.71s-43.71-19.57-43.71-43.71,19.57-43.71,43.71-43.71,43.72,19.57,43.72,43.71Z"/>
        <path class="st0" d="M6572.72,1492.15c0,18.53-15.02,33.56-33.56,33.56s-33.56-15.02-33.56-33.56,15.02-33.55,33.56-33.55,33.56,15.02,33.56,33.55Z"/>
        <circle class="st4" cx="6539.16" cy="1492.15" r="11.98"/>
      </g>
      <polygon class="st9" points="6615.9 1481.49 6605.9 1435.97 6452.15 1435.97 6413.23 1435.97 6259.48 1435.97 6249.49 1481.49 6244.15 1498.38 6257.57 1498.38 6268.57 1481.49 6413.23 1481.49 6452.15 1481.49 6596.82 1481.49 6607.81 1498.38 6621.23 1498.38 6615.9 1481.49"/>
    </g>
    <rect class="st6" x="5027.76" y="1102.88" width="44.24" height="294.65"/>
    <rect class="st6" x="6664.91" y="1102.88" width="44.24" height="294.65"/>
    <rect class="st8" x="5072" y="1042.52" width="1592.92" height="371.02"/>
    <rect class="st5" x="5072" y="1042.52" width="1592.92" height="81.21"/>
    <rect class="st4" x="5072" y="1123.72" width="1592.92" height="164.97"/>
    <g>
      <path class="st5" d="M5338.69,1164.5h149.37c5.75,0,10.42,4.67,10.42,10.42v237.96h-170.21v-237.96c0-5.75,4.67-10.42,10.42-10.42Z"/>
      <path class="st7" d="M5343.99,1169.54h138.77c5.5,0,9.96,4.46,9.96,9.96v233.38h-158.69v-233.38c0-5.5,4.46-9.96,9.96-9.96Z"/>
      <rect class="st9" x="5352.47" y="1187.65" width="40.09" height="113.8" rx="3.01" ry="3.01"/>
      <rect class="st9" x="5430.7" y="1187.65" width="40.09" height="113.8" rx="3.01" ry="3.01"/>
      <rect class="st5" x="5411.63" y="1167.11" width="5.76" height="245.77"/>
    </g>
    <g>
      <path class="st5" d="M6254.57,1164.5h149.37c5.75,0,10.42,4.67,10.42,10.42v237.96h-170.21v-237.96c0-5.75,4.67-10.42,10.42-10.42Z"/>
      <path class="st7" d="M6259.87,1169.54h138.77c5.5,0,9.96,4.46,9.96,9.96v233.38h-158.69v-233.38c0-5.5,4.46-9.96,9.96-9.96Z"/>
      <path class="st9" d="M6271.35,1187.65h34.08c1.66,0,3.01,1.35,3.01,3.01v107.79c0,1.66-1.35,3.01-3.01,3.01h-34.08c-1.66,0-3.01-1.35-3.01-3.01v-107.79c0-1.66,1.35-3.01,3.01-3.01Z"/>
      <rect class="st9" x="6346.59" y="1187.65" width="40.09" height="113.8" rx="3.01" ry="3.01"/>
      <rect class="st5" x="6327.51" y="1167.11" width="5.76" height="245.77"/>
    </g>
    <g>
      <path class="st5" d="M5103.42,1166.94h180.28c3.93,0,7.13,3.19,7.13,7.13v80.78c0,3.93-3.19,7.13-7.13,7.13h-180.28c-3.93,0-7.13-3.19-7.13-7.13v-80.78c0-3.93,3.19-7.13,7.13-7.13Z"/>
      <path class="st9" d="M5110.38,1171.38h166.35c3.5,0,6.35,2.84,6.35,6.35v71.96c0,3.5-2.84,6.35-6.35,6.35h-166.35c-3.5,0-6.35-2.84-6.35-6.35v-71.96c0-3.5,2.84-6.35,6.35-6.35Z"/>
      <polygon class="st1" points="5150.09 1171.38 5104.03 1221.63 5104.22 1236.63 5166.04 1171.38 5150.09 1171.38"/>
      <path class="st1" d="M5146.1,1256.03l73.12-84.66h26.59s-58.17,84.66-59.5,84.66h-40.22Z"/>
      <path class="st1" d="M5225.54,1256.03c.67,0,57.54-56.01,57.54-56.01v14.08l-30.29,41.93h-27.26Z"/>
    </g>
    <g>
      <path class="st5" d="M6450.78,1160.48h180.28c3.93,0,7.13,3.19,7.13,7.13v80.78c0,3.93-3.19,7.13-7.13,7.13h-180.28c-3.93,0-7.13-3.19-7.13-7.13v-80.78c0-3.93,3.19-7.13,7.13-7.13Z"/>
      <path class="st9" d="M6457.75,1164.92h166.35c3.5,0,6.35,2.84,6.35,6.35v71.96c0,3.5-2.84,6.35-6.35,6.35h-166.35c-3.5,0-6.35-2.84-6.35-6.35v-71.96c0-3.5,2.84-6.35,6.35-6.35Z"/>
      <polygon class="st1" points="6497.45 1164.92 6451.4 1215.16 6451.59 1230.16 6513.41 1164.92 6497.45 1164.92"/>
      <path class="st1" d="M6493.47,1249.57l73.12-84.66h26.59s-58.17,84.66-59.5,84.66h-40.22Z"/>
      <path class="st1" d="M6572.91,1249.57c.66,0,57.54-56.01,57.54-56.01v14.08l-30.28,41.93h-27.25Z"/>
    </g>
    <g>
      <rect class="st5" x="5536.87" y="1165.4" width="194.53" height="95.03" rx="7.13" ry="7.13"/>
      <path class="st9" d="M5550.96,1169.83h166.35c3.5,0,6.35,2.84,6.35,6.35v71.96c0,3.5-2.84,6.35-6.35,6.35h-166.35c-3.5,0-6.35-2.84-6.35-6.35v-71.96c0-3.5,2.84-6.35,6.35-6.35Z"/>
      <polygon class="st1" points="5590.67 1169.83 5544.61 1220.08 5544.81 1235.08 5606.63 1169.83 5590.67 1169.83"/>
      <path class="st1" d="M5586.68,1254.49l73.12-84.66h26.59s-58.17,84.66-59.5,84.66h-40.22Z"/>
      <path class="st1" d="M5666.12,1254.49c.66,0,57.54-56.01,57.54-56.01v14.08l-30.29,41.93h-27.26Z"/>
    </g>
    <g>
      <rect class="st5" x="5782.35" y="1165.76" width="194.53" height="95.03" rx="7.13" ry="7.13"/>
      <path class="st9" d="M5796.44,1170.2h166.35c3.5,0,6.35,2.84,6.35,6.35v71.96c0,3.5-2.84,6.35-6.35,6.35h-166.35c-3.5,0-6.35-2.84-6.35-6.35v-71.96c0-3.5,2.84-6.35,6.35-6.35Z"/>
      <polygon class="st1" points="5836.15 1170.2 5790.09 1220.45 5790.28 1235.45 5852.1 1170.2 5836.15 1170.2"/>
      <path class="st1" d="M5832.16,1254.86l73.12-84.66h26.59s-58.17,84.66-59.5,84.66h-40.22Z"/>
      <path class="st1" d="M5911.6,1254.86c.67,0,57.54-56.01,57.54-56.01v14.08l-30.28,41.93h-27.26Z"/>
    </g>
    <g>
      <path class="st5" d="M6029.59,1165.76h180.28c3.93,0,7.13,3.19,7.13,7.13v80.78c0,3.93-3.19,7.13-7.13,7.13h-180.28c-3.93,0-7.13-3.19-7.13-7.13v-80.78c0-3.93,3.19-7.13,7.13-7.13Z"/>
      <rect class="st9" x="6030.2" y="1170.2" width="179.05" height="84.66" rx="6.35" ry="6.35"/>
      <polygon class="st1" points="6076.26 1170.2 6030.2 1220.45 6030.39 1235.45 6092.21 1170.2 6076.26 1170.2"/>
      <path class="st1" d="M6072.27,1254.86l73.12-84.66h26.59s-58.17,84.66-59.5,84.66h-40.22Z"/>
      <path class="st1" d="M6151.71,1254.86c.66,0,57.54-56.01,57.54-56.01v14.08l-30.29,41.93h-27.26Z"/>
    </g>
    <polygon class="st4" points="6664.91 1373.64 6443.66 1373.64 6486.78 1336.21 6664.91 1336.21 6664.91 1373.64"/>
    <polygon class="st4" points="5249.02 1373.64 5072.03 1373.64 5072.03 1336.21 5292.31 1336.21 5249.02 1373.64"/>
    <polygon class="st4" points="6030.61 1336.21 5996.71 1336.21 5588.98 1336.21 5534.1 1373.64 5996.71 1373.64 6030.61 1373.64 6173.7 1373.64 6216.99 1336.21 6030.61 1336.21"/>
    <path class="st2" d="M5620.94,1078.01c17.23.59,34.78,1.16,51.41-3.39,2.28-.62,4.67-1.44,6.11-3.32,2.61-3.42.51-8.75-3.14-11.02-3.65-2.28-8.21-2.35-12.51-2.36-144.97-.19-289.95-.39-434.92-.58-18.02-.02-36.05-.05-54.07-.07-15.09-.02-33.28-2.82-47.78,2.16-8.24,2.83-21.61,10.61-11.95,19.46,9.39,8.6,39.12,1.09,50.59.33,71.61-4.72,143.39-6.41,215.15-6.33,80.36.08,160.83,1.78,241.12,5.13Z"/>
    <path class="st2" d="M5910.82,1079.19c20.62.34,41.53.65,61.51-4.46,2.72-.69,5.63-1.64,7.22-3.96,2.53-3.69.18-9.11-3.67-11.4-3.85-2.28-8.59-2.29-13.07-2.18-32.84.78-65.6,3.93-98.45,4.04-15.13.05-30.26-.55-45.37-1.14-10.31-.41-96.46-10.1-91.16,9.68,3.28,12.23,41.66,7.07,50.94,7.22,20.83.35,41.66.69,62.48,1.04,23.19.39,46.37.77,69.56,1.15Z"/>
  </g>
</svg>